SplineFontDB: 3.0
FontName: NeozoicTrial
FullName: Neozoic Trial
FamilyName: Neozoic Trial
Weight: Book
Copyright: Copyright (c) 2018 by Syntetype Studio. All rights reserved.
Version: 1.000
ItalicAngle: 0
UnderlinePosition: -100
UnderlineWidth: 50
Ascent: 800
Descent: 200
InvalidEm: 0
sfntRevision: 0x00010000
LayerCount: 2
Layer: 0 1 "Back" 1
Layer: 1 1 "Fore" 0
XUID: [1021 206 -364672165 3604]
StyleMap: 0x0040
FSType: 4
OS2Version: 3
OS2_WeightWidthSlopeOnly: 0
OS2_UseTypoMetrics: 0
CreationTime: 1524013105
ModificationTime: 1703191817
PfmFamily: 17
TTFWeight: 400
TTFWidth: 5
LineGap: 0
VLineGap: 0
Panose: 2 0 5 6 0 0 0 2 0 4
OS2TypoAscent: 800
OS2TypoAOffset: 0
OS2TypoDescent: -200
OS2TypoDOffset: 0
OS2TypoLinegap: 0
OS2WinAscent: 1000
OS2WinAOffset: 0
OS2WinDescent: 200
OS2WinDOffset: 0
HheadAscent: 1000
HheadAOffset: 0
HheadDescent: -200
HheadDOffset: 0
OS2SubXSize: 650
OS2SubYSize: 600
OS2SubXOff: 0
OS2SubYOff: 75
OS2SupXSize: 650
OS2SupYSize: 600
OS2SupXOff: 0
OS2SupYOff: 350
OS2StrikeYSize: 50
OS2StrikeYPos: 250
OS2CapHeight: 700
OS2XHeight: 500
OS2Vendor: 'PYRS'
OS2CodePages: 20000083.00000000
OS2UnicodeRanges: 0000000f.00000000.00000000.00000000
DEI: 91125
TtTable: prep
PUSHW_1
 0
CALL
SVTCA[y-axis]
PUSHW_3
 1
 4
 7
CALL
PUSHW_1
 0
DUP
RCVT
RDTG
ROUND[Black]
RTG
WCVTP
EndTTInstrs
TtTable: fpgm
PUSHW_1
 0
FDEF
MPPEM
PUSHW_1
 9
LT
IF
PUSHB_2
 1
 1
INSTCTRL
EIF
PUSHW_1
 511
SCANCTRL
PUSHW_1
 68
SCVTCI
PUSHW_2
 9
 3
SDS
SDB
ENDF
PUSHW_1
 1
FDEF
DUP
DUP
RCVT
ROUND[Black]
WCVTP
PUSHB_1
 1
ADD
ENDF
PUSHW_1
 2
FDEF
PUSHW_1
 1
LOOPCALL
POP
ENDF
PUSHW_1
 3
FDEF
DUP
GC[cur]
PUSHB_1
 3
CINDEX
GC[cur]
GT
IF
SWAP
EIF
DUP
ROLL
DUP
ROLL
MD[grid]
ABS
ROLL
DUP
GC[cur]
DUP
ROUND[Grey]
SUB
ABS
PUSHB_1
 4
CINDEX
GC[cur]
DUP
ROUND[Grey]
SUB
ABS
GT
IF
SWAP
NEG
ROLL
EIF
MDAP[rnd]
DUP
PUSHB_1
 0
GTEQ
IF
ROUND[Black]
DUP
PUSHB_1
 0
EQ
IF
POP
PUSHB_1
 64
EIF
ELSE
ROUND[Black]
DUP
PUSHB_1
 0
EQ
IF
POP
PUSHB_1
 64
NEG
EIF
EIF
MSIRP[no-rp0]
ENDF
PUSHW_1
 4
FDEF
DUP
GC[cur]
PUSHB_1
 4

StartChar: h
Encoding: 104 104 4
Width: 535
Flags: W
LayerCount: 2
Fore
SplineSet
176 415 m 1,0,-1
 359 415 l 1,1,-1
 359 692 l 1,2,-1
 367 700 l 1,3,-1
 467 700 l 1,4,-1
 475 692 l 1,5,-1
 475 8 l 1,6,-1
 467 0 l 1,7,-1
 367 0 l 1,8,-1
 359 8 l 1,9,-1
 359 300 l 1,10,-1
 176 300 l 1,11,-1
 176 8 l 1,12,-1
 168 0 l 1,13,-1
 68 0 l 1,14,-1
 60 8 l 1,15,-1
 60 692 l 1,16,-1
 68 700 l 1,17,-1
 168 700 l 1,18,-1
 176 692 l 1,19,-1
 176 415 l 1,0,-1
EndSplineSet
Validated: 1
EndChar

StartChar: i
Encoding: 105 105 5
Width: 236
Flags: W
LayerCount: 2
Fore
SplineSet
176 8 m 1,0,-1
 168 0 l 1,1,-1
 68 0 l 1,2,-1
 60 8 l 1,3,-1
 60 692 l 1,4,-1
 68 700 l 1,5,-1
 168 700 l 1,6,-1
 176 692 l 1,7,-1
 176 8 l 1,0,-1
EndSplineSet
Validated: 1
EndChar

StartChar: j
Encoding: 106 106 6
Width: 483
Flags: W
LayerCount: 2
Fore
SplineSet
313 692 m 1,0,-1
 321 700 l 1,1,-1
 420 700 l 1,2,-1
 428 692 l 1,3,-1
 428 201 l 2,4,5
 428 157 428 157 411 117.5 c 128,-1,6
 394 78 394 78 365 49 c 128,-1,7
 336 20 336 20 297 3 c 128,-1,8
 258 -14 258 -14 214 -14 c 0,9,10
 181 -14 181 -14 150.5 -4.5 c 128,-1,11
 120 5 120 5 94 23 c 128,-1,12
 68 41 68 41 47.5 65.5 c 128,-1,13
 27 90 27 90 15 120 c 1,14,-1
 18 130 l 1,15,-1
 106 180 l 1,16,-1
 118 175 l 1,17,18
 127 143 127 143 153.5 122.5 c 128,-1,19
 180 102 180 102 214 102 c 0,20,21
 234 102 234 102 252 110 c 128,-1,22
 270 118 270 118 283.5 131.5 c 128,-1,23
 297 145 297 145 305 163 c 128,-1,24
 313 181 313 181 313 201 c 2,25,-1
 313 692 l 1,0,-1
EndSplineSet
Validated: 1
EndChar

StartChar: k
Encoding: 107 107 7
Width: 518
Flags: W
LayerCount: 2
Fore
SplineSet
176 265 m 1,0,-1
 176 8 l 1,1,-1
 168 0 l 1,2,-1
 68 0 l 1,3,-1
 60 8 l 1,4,-1
 60 692 l 1,5,-1
 68 700 l 1,6,-1
 168 700 l 1,7,-1
 176 692 l 1,8,-1
 176 435 l 1,9,-1
 354 697 l 1,10,-1
 361 700 l 1,11,-1
 482 700 l 1,12,-1
 488 688 l 1,13,-1
 258 350 l 1,14,-1
 488 13 l 1,15,-1
 482 0 l 1,16,-1
 361 0 l 1,17,-1
 354 4 l 1,18,-1
 176 265 l 1,0,-1
EndSplineSet
Validated: 1
EndChar

StartChar: l
Encoding: 108 108 8
Width: 457
Flags: W
LayerCount: 2
Fore
SplineSet
176 116 m 1,0,-1
 424 116 l 1,1,-1
 432 108 l 1,2,-1
 432 8 l 1,3,-1
 424 0 l 1,4,-1
 68 0 l 1,5,-1
 60 8 l 1,6,-1
 60 692 l 1,7,-1
 68 700 l 1,8,-1
 168 700 l 1,9,-1
 176 692 l 1,10,-1
 176 116 l 1,0,-1
EndSplineSet
Validated: 1
EndChar

StartChar: m
Encoding: 109 109 9
Width: 549
Flags: W
LayerCount: 2
Fore
SplineSet
373 449 m 1,0,-1
 282 255 l 1,1,-1
 267 255 l 1,2,-1
 175 449 l 1,3,-1
 175 8 l 1,4,-1
 167 0 l 1,5,-1
 68 0 l 1,6,-1
 60 8 l 1,7,-1
 60 692 l 1,8,-1
 68 700 l 1,9,-1
 167 700 l 1,10,-1
 175 695 l 1,11,-1
 274 485 l 1,12,-1
 374 695 l 1,13,-1
 381 700 l 1,14,-1
 481 700 l 1,15,-1
 489 692 l 1,16,-1
 489 8 l 1,17,-1
 481 0 l 1,18,-1
 381 0 l 1,19,-1
 373 8 l 1,20,-1
 373 449 l 1,0,-1
EndSplineSet
Validated: 1
EndChar

StartChar: n
Encoding: 110 110 10
Width: 549
Flags: W
LayerCount: 2
Fore
SplineSet
374 276 m 1,0,-1
 374 692 l 1,1,-1
 382 700 l 1,2,-1
 481 700 l 1,3,-1
 489 692 l 1,4,-1
 489 8 l 1,5,-1
 481 0 l 1,6,-1
 393 0 l 1,7,-1
 386 5 l 1,8,-1
 176 449 l 1,9,-1
 176 8 l 1,10,-1
 168 0 l 1,11,-1
 68 0 l 1,12,-1
 60 8 l 1,13,-1
 60 692 l 1,14,-1
 68 700 l 1,15,-1
 168 700 l 1,16,-1
 175 695 l 1,17,-1
 374 276 l 1,0,-1
EndSplineSet
Validated: 1
EndChar

StartChar: o
Encoding: 111 111 11
Width: 519
Flags: W
LayerCount: 2
Fore
SplineSet
260 598 m 0,0,1
 218 598 218 598 189.5 569.5 c 128,-1,2
 161 541 161 541 161 500 c 2,3,-1
 161 201 l 2,4,5
 161 181 161 181 168.5 163 c 128,-1,6
 176 145 176 145 189.5 131.5 c 128,-1,7
 203 118 203 118 221 110 c 128,-1,8
 239 102 239 102 260 102 c 0,9,10
 280 102 280 102 298 110 c 128,-1,11
 316 118 316 118 329.5 131.5 c 128,-1,12
 343 145 343 145 351 163 c 128,-1,13
 359 181 359 181 359 201 c 2,14,-1
 359 500 l 2,15,16
 359 520 359 520 351 538 c 128,-1,17
 343 556 343 556 329.5 569.5 c 128,-1,18
 316 583 316 583 298 590.5 c 128,-1,19
 280 598 280 598 260 598 c 0,0,1
260 714 m 256,20,21
 304 714 304 714 343 697 c 128,-1,22
 382 680 382 680 411 651 c 128,-1,23
 440 622 440 622 457 583 c 128,-1,24
 474 544 474 544 474 500 c 2,25,-1
 474 201 l 2,26,27
 474 157 474 157 457 117.5 c 128,-1,28
 440 78 440 78 411 49 c 128,-1,29
 382 20 382 20 343 3 c 128,-1,30
 304 -14 304 -14 260 -14 c 256,31,32
 216 -14 216 -14 176.5 3 c 128,-1,33
 137 20 137 20 108 49 c 128,-1,34
 79 78 79 78 62 117.5 c 128,-1,35
 45 157 45 157 45 201 c 2,36,-1
 45 500 l 2,37,38
 45 544 45 544 62 583 c 128,-1,39
 79 622 79 622 108 651 c 128,-1,40
 137 680 137 680 176.5 697 c 128,-1,41
 216 714 216 714 260 714 c 256,20,21
EndSplineSet
Validated: 1
EndChar

StartChar: p
Encoding: 112 112 12
Width: 525
Flags: W
LayerCount: 2
Fore
SplineSet
176 584 m 1,0,-1
 176 401 l 1,1,-1
 282 401 l 2,2,3
 301 401 301 401 318 408 c 128,-1,4
 335 415 335 415 347.5 427.5 c 128,-1,5
 360 440 360 440 367 457 c 128,-1,6
 374 474 374 474 374 493 c 256,7,8
 374 512 374 512 367 528.5 c 128,-1,9
 360 545 360 545 347.5 557.5 c 128,-1,10
 335 570 335 570 318 577 c 128,-1,11
 301 584 301 584 282 584 c 2,12,-1
 176 584 l 1,0,-1
176 285 m 1,13,-1
 176 8 l 1,14,-1
 168 0 l 1,15,-1
 68 0 l 1,16,-1
 60 8 l 1,17,-1
 60 692 l 1,18,-1
 68 700 l 1,19,-1
 282 700 l 2,20,21
 325 700 325 700 362.5 683.5 c 128,-1,22
 400 667 400 667 428.5 639 c 128,-1,23
 457 611 457 611 473.5 573.5 c 128,-1,24
 490 536 490 536 490 493 c 256,25,26
 490 450 490 450 473.5 412.5 c 128,-1,27
 457 375 457 375 428.5 346.5 c 128,-1,28
 400 318 400 318 362.5 301.5 c 128,-1,29
 325 285 325 285 282 285 c 2,30,-1
 176 285 l 1,13,-1
EndSplineSet
Validated: 1
EndChar

StartChar: q
Encoding: 113 113 13
Width: 524
Flags: W
LayerCount: 2
Fore
SplineSet
260 598 m 0,0,1
 218 598 218 598 189.5 569.5 c 128,-1,2
 161 541 161 541 161 500 c 2,3,-1
 161 201 l 2,4,5
 161 181 161 181 168.5 163 c 128,-1,6
 176 145 176 145 189.5 131.5 c 128,-1,7
 203 118 203 118 221 110 c 128,-1,8
 239 102 239 102 260 102 c 0,9,10
 280 102 280 102 298 110 c 128,-1,11
 316 118 316 118 329.5 131.5 c 128,-1,12
 343 145 343 145 350.5 163 c 128,-1,13
 358 181 358 181 358 201 c 2,14,-1
 358 500 l 2,15,16
 358 541 358 541 329.5 569.5 c 128,-1,17
 301 598 301 598 260 598 c 0,0,1
326 -3 m 1,18,19
 291 -14 291 -14 260 -14 c 0,20,21
 215 -14 215 -14 176 3 c 128,-1,22
 137 20 137 20 108 49 c 128,-1,23
 79 78 79 78 62 117.5 c 128,-1,24
 45 157 45 157 45 201 c 2,25,-1
 45 500 l 2,26,27
 45 544 45 544 62 583 c 128,-1,28
 79 622 79 622 108 651 c 128,-1,29
 137 680 137 680 176 697 c 128,-1,30
 215 714 215 714 260 714 c 0,31,32
 304 714 304 714 343 697 c 128,-1,33
 382 680 382 680 411 651 c 128,-1,34
 440 622 440 622 457 583 c 128,-1,35
 474 544 474 544 474 500 c 2,36,-1
 474 201 l 2,37,38
 474 122 474 122 423 62 c 1,39,-1
 473 -45 l 1,40,-1
 466 -57 l 1,41,-1
 356 -57 l 1,42,-1
 349 -52 l 1,43,-1
 326 -3 l 1,18,19
EndSplineSet
Validated: 1
EndChar

StartChar: r
Encoding: 114 114 14
Width: 535
Flags: W
LayerCount: 2
Fore
SplineSet
176 415 m 1,0,-1
 289 415 l 2,1,2
 324 415 324 415 349 440 c 128,-1,3
 374 465 374 465 374 500 c 0,4,5
 374 517 374 517 367.5 532.5 c 128,-1,6
 361 548 361 548 349.5 559.5 c 128,-1,7
 338 571 338 571 322.5 577.5 c 128,-1,8
 307 584 307 584 289 584 c 2,9,-1
 176 584 l 1,10,-1
 176 415 l 1,0,-1
377 320 m 1,11,-1
 489 11 l 1,12,-1
 482 0 l 1,13,-1
 375 0 l 1,14,-1
 368 5 l 1,15,-1
 261 299 l 1,16,-1
 176 299 l 1,17,-1
 176 8 l 1,18,-1
 168 0 l 1,19,-1
 68 0 l 1,20,-1
 60 8 l 1,21,-1
 60 692 l 1,22,-1
 68 700 l 1,23,-1
 289 700 l 2,24,25
 330 700 330 700 366.5 684 c 128,-1,26
 403 668 403 668 430.5 641 c 128,-1,27
 458 614 458 614 474 577.5 c 128,-1,28
 490 541 490 541 490 500 c 0,29,30
 490 442 490 442 459 393.5 c 128,-1,31
 428 345 428 345 377 320 c 1,11,-1
EndSplineSet
Validated: 1
EndChar

StartChar: s
Encoding: 115 115 15
Width: 497
Flags: W
LayerCount: 2
Fore
SplineSet
248 102 m 0,0,1
 265 102 265 102 281.5 108 c 128,-1,2
 298 114 298 114 310.5 124.5 c 128,-1,3
 323 135 323 135 331 150 c 128,-1,4
 339 165 339 165 339 183 c 0,5,6
 339 205 339 205 328.5 223 c 128,-1,7
 318 241 318 241 302 254.5 c 128,-1,8
 286 268 286 268 266.5 278 c 128,-1,9
 247 288 247 288 228 296 c 0,10,11
 204 306 204 306 180.5 316.5 c 128,-1,12
 157 327 157 327 135.5 341 c 128,-1,13
 114 355 114 355 95 374.5 c 128,-1,14
 76 394 76 394 61 421 c 0,15,16
 35 467 35 467 35 518 c 0,17,18
 35 565 35 565 57.5 607 c 128,-1,19
 80 649 80 649 118 675 c 0,20,21
 147 695 147 695 180 704.5 c 128,-1,22
 213 714 213 714 248 714 c 0,23,24
 314 714 314 714 367 677.5 c 128,-1,25
 420 641 420 641 446 581 c 1,26,-1
 443 571 l 1,27,-1
 351 514 l 1,28,-1
 339 519 l 1,29,30
 331 549 331 549 305.5 573.5 c 128,-1,31
 280 598 280 598 248 598 c 0,32,33
 210 598 210 598 184 578 c 128,-1,34
 158 558 158 558 158 524 c 0,35,36
 158 500 158 500 167 482.5 c 128,-1,37
 176 465 176 465 192 452 c 128,-1,38
 208 439 208 439 228.5 429 c 128,-1,39
 249 419 249 419 272 409 c 0,40,41
 319 389 319 389 363 361 c 128,-1,42
 407 333 407 333 436 286 c 0,43,44
 450 263 450 263 456 238.5 c 128,-1,45
 462 214 462 214 462 188 c 0,46,47
 462 140 462 140 439.5 97.5 c 128,-1,48
 417 55 417 55 379 28 c 0,49,50
 350 7 350 7 316.5 -3.5 c 128,-1,51
 283 -14 283 -14 248 -14 c 0,52,53
 214 -14 214 -14 182.5 -5 c 128,-1,54
 151 4 151 4 123.5 21 c 128,-1,55
 96 38 96 38 74.5 62.5 c 128,-1,56
 53 87 53 87 40 119 c 1,57,-1
 44 129 l 1,58,-1
 132 180 l 1,59,-1
 143 175 l 1,60,61
 153 140 153 140 182.5 121 c 128,-1,62
 212 102 212 102 248 102 c 0,0,1
EndSplineSet
Validated: 1
EndChar

StartChar: t
Encoding: 116 116 16
Width: 479
Flags: W
LayerCount: 2
Fore
SplineSet
297 584 m 1,0,-1
 297 8 l 1,1,-1
 289 0 l 1,2,-1
 190 0 l 1,3,-1
 182 8 l 1,4,-1
 182 584 l 1,5,-1
 33 584 l 1,6,-1
 25 592 l 1,7,-1
 25 692 l 1,8,-1
 33 700 l 1,9,-1
 446 700 l 1,10,-1
 454 692 l 1,11,-1
 454 592 l 1,12,-1
 446 584 l 1,13,-1
 297 584 l 1,0,-1
EndSplineSet
Validated: 1
EndChar

StartChar: u
Encoding: 117 117 17
Width: 529
Flags: W
LayerCount: 2
Fore
SplineSet
166 692 m 1,0,-1
 166 200 l 2,1,2
 166 180 166 180 174 162 c 128,-1,3
 182 144 182 144 195.5 130.5 c 128,-1,4
 209 117 209 117 227 109.5 c 128,-1,5
 245 102 245 102 265 102 c 256,6,7
 285 102 285 102 303 109.5 c 128,-1,8
 321 117 321 117 334.5 130.5 c 128,-1,9
 348 144 348 144 356 162 c 128,-1,10
 364 180 364 180 364 200 c 2,11,-1
 364 692 l 1,12,-1
 372 700 l 1,13,-1
 471 700 l 1,14,-1
 479 692 l 1,15,-1
 479 200 l 2,16,17
 479 156 479 156 462 117 c 128,-1,18
 445 78 445 78 416 49 c 128,-1,19
 387 20 387 20 348 3 c 128,-1,20
 309 -14 309 -14 265 -14 c 256,21,22
 221 -14 221 -14 181.5 3 c 128,-1,23
 142 20 142 20 113 49 c 128,-1,24
 84 78 84 78 67 117 c 128,-1,25
 50 156 50 156 50 200 c 2,26,-1
 50 692 l 1,27,-1
 58 700 l 1,28,-1
 158 700 l 1,29,-1
 166 692 l 1,0,-1
EndSplineSet
Validated: 1
EndChar

StartChar: v
Encoding: 118 118 18
Width: 479
Flags: W
LayerCount: 2
Fore
SplineSet
239 310 m 1,0,-1
 335 694 l 1,1,-1
 343 700 l 1,2,-1
 446 700 l 1,3,-1
 454 690 l 1,4,-1
 283 6 l 1,5,-1
 275 0 l 1,6,-1
 204 0 l 1,7,-1
 196 6 l 1,8,-1
 25 690 l 1,9,-1
 33 700 l 1,10,-1
 135 700 l 1,11,-1
 143 694 l 1,12,-1
 239 310 l 1,0,-1
EndSplineSet
Validated: 1
EndChar

StartChar: w
Encoding: 119 119 19
Width: 537
Flags: W
LayerCount: 2
Fore
SplineSet
211 5 m 1,0,-1
 204 0 l 1,1,-1
 104 0 l 1,2,-1
 96 7 l 1,3,-1
 40 692 l 1,4,-1
 47 700 l 1,5,-1
 147 700 l 1,6,-1
 155 692 l 1,7,-1
 192 252 l 1,8,-1
 261 430 l 1,9,-1
 276 430 l 1,10,-1
 345 252 l 1,11,-1
 382 692 l 1,12,-1
 390 700 l 1,13,-1
 490 700 l 1,14,-1
 497 692 l 1,15,-1
 441 7 l 1,16,-1
 433 0 l 1,17,-1
 333 0 l 1,18,-1
 326 5 l 1,19,-1
 268 185 l 1,20,-1
 211 5 l 1,0,-1
EndSplineSet
Validated: 1
EndChar

StartChar: x
Encoding: 120 120 20
Width: 468
Flags: W
LayerCount: 2
Fore
SplineSet
234 492 m 1,0,-1
 324 695 l 1,1,-1
 331 700 l 1,2,-1
 440 700 l 1,3,-1
 448 689 l 1,4,-1
 297 350 l 1,5,-1
 447 11 l 1,6,-1
 440 0 l 1,7,-1
 331 0 l 1,8,-1
 324 5 l 1,9,-1
 234 207 l 1,10,-1
 144 5 l 1,11,-1
 136 0 l 1,12,-1
 27 0 l 1,13,-1
 20 11 l 1,14,-1
 170 350 l 1,15,-1
 20 689 l 1,16,-1
 27 700 l 1,17,-1
 136 700 l 1,18,-1
 143 695 l 1,19,-1
 234 492 l 1,0,-1
EndSplineSet
Validated: 1
EndChar

StartChar: y
Encoding: 121 121 21
Width: 468
Flags: W
LayerCount: 2
Fore
SplineSet
234 492 m 1,0,-1
 324 695 l 1,1,-1
 332 700 l 1,2,-1
 441 700 l 1,3,-1
 448 689 l 1,4,-1
 292 337 l 1,5,-1
 292 8 l 1,6,-1
 284 0 l 1,7,-1
 184 0 l 1,8,-1
 176 8 l 1,9,-1
 176 337 l 1,10,-1
 20 689 l 1,11,-1
 27 700 l 1,12,-1
 137 700 l 1,13,-1
 144 695 l 1,14,-1
 234 492 l 1,0,-1
EndSplineSet
Validated: 1
EndChar

StartChar: z
Encoding: 122 122 22
Width: 519
Flags: W
LayerCount: 2
Fore
SplineSet
324 584 m 1,0,-1
 53 584 l 1,1,-1
 45 592 l 1,2,-1
 45 692 l 1,3,-1
 53 700 l 1,4,-1
 466 700 l 1,5,-1
 474 692 l 1,6,-1
 474 621 l 1,7,-1
 473 617 l 1,8,-1
 195 116 l 1,9,-1
 466 116 l 1,10,-1
 474 108 l 1,11,-1
 474 8 l 1,12,-1
 466 0 l 1,13,-1
 53 0 l 1,14,-1
 45 8 l 1,15,-1
 45 79 l 1,16,-1
 46 83 l 1,17,-1
 324 584 l 1,0,-1
EndSplineSet
Validated: 1
EndChar

StartChar: d
Encoding: 100 100 23
Width: 534
Flags: W
LayerCount: 2
Fore
SplineSet
175 585 m 1,0,-1
 175 116 l 1,1,-1
 274 116 l 2,2,3
 294 116 294 116 312 124 c 128,-1,4
 330 132 330 132 343.5 145.5 c 128,-1,5
 357 159 357 159 365 177 c 128,-1,6
 373 195 373 195 373 215 c 2,7,-1
 373 486 l 2,8,9
 373 506 373 506 365 524 c 128,-1,10
 357 542 357 542 343.5 555.5 c 128,-1,11
 330 569 330 569 312 577 c 128,-1,12
 294 585 294 585 274 585 c 2,13,-1
 175 585 l 1,0,-1
60 8 m 1,14,-1
 60 692 l 1,15,-1
 68 700 l 1,16,-1
 274 700 l 2,17,18
 318 700 318 700 357 683 c 128,-1,19
 396 666 396 666 425.5 637 c 128,-1,20
 455 608 455 608 472 569 c 128,-1,21
 489 530 489 530 489 486 c 2,22,-1
 489 215 l 2,23,24
 489 171 489 171 472 131.5 c 128,-1,25
 455 92 455 92 425.5 63 c 128,-1,26
 396 34 396 34 357 17 c 128,-1,27
 318 0 318 0 274 0 c 2,28,-1
 68 0 l 1,29,-1
 60 8 l 1,14,-1
EndSplineSet
Validated: 1
EndChar

StartChar: A
Encoding: 65 65 24
Width: 469
Flags: W
LayerCount: 2
Fore
SplineSet
307 694 m 1,0,-1
 449 10 l 1,1,-1
 441 0 l 1,2,-1
 342 0 l 1,3,-1
 334 6 l 1,4,-1
 299 184 l 1,5,-1
 171 184 l 1,6,-1
 135 6 l 1,7,-1
 128 0 l 1,8,-1
 28 0 l 1,9,-1
 20 10 l 1,10,-1
 163 694 l 1,11,-1
 171 700 l 1,12,-1
 299 700 l 1,13,-1
 307 694 l 1,0,-1
275 300 m 1,14,-1
 235 502 l 1,15,-1
 194 300 l 1,16,-1
 275 300 l 1,14,-1
EndSplineSet
Validated: 1
EndChar

StartChar: B
Encoding: 66 66 25
Width: 524
Flags: W
LayerCount: 2
Fore
SplineSet
176 116 m 1,0,-1
 282 116 l 2,1,2
 320 116 320 116 347 143 c 128,-1,3
 374 170 374 170 374 208 c 256,4,5
 374 246 374 246 347 273 c 128,-1,6
 320 300 320 300 282 300 c 2,7,-1
 176 300 l 1,8,-1
 176 116 l 1,0,-1
176 585 m 1,9,-1
 176 415 l 1,10,-1
 260 415 l 2,11,12
 278 415 278 415 293.5 422 c 128,-1,13
 309 429 309 429 320.5 440.5 c 128,-1,14
 332 452 332 452 338.5 467.5 c 128,-1,15
 345 483 345 483 345 500 c 256,16,17
 345 517 345 517 338.5 532.5 c 128,-1,18
 332 548 332 548 320.5 559.5 c 128,-1,19
 309 571 309 571 293.5 578 c 128,-1,20
 278 585 278 585 260 585 c 2,21,-1
 176 585 l 1,9,-1
412 369 m 1,22,23
 449 340 449 340 469 298 c 128,-1,24
 489 256 489 256 489 208 c 0,25,26
 489 165 489 165 472.5 127.5 c 128,-1,27
 456 90 456 90 428 61.5 c 128,-1,28
 400 33 400 33 362.5 16.5 c 128,-1,29
 325 0 325 0 282 0 c 2,30,-1
 68 0 l 1,31,-1
 60 8 l 1,32,-1
 60 692 l 1,33,-1
 68 700 l 1,34,-1
 260 700 l 2,35,36
 302 700 302 700 338.5 684 c 128,-1,37
 375 668 375 668 402 641 c 128,-1,38
 429 614 429 614 445 577.5 c 128,-1,39
 461 541 461 541 461 500 c 0,40,41
 461 464 461 464 448 430.5 c 128,-1,42
 435 397 435 397 412 369 c 1,22,23
EndSplineSet
Validated: 1
EndChar

StartChar: C
Encoding: 67 67 26
Width: 504
Flags: W
LayerCount: 2
Fore
SplineSet
260 599 m 0,0,1
 240 599 240 599 222 591 c 128,-1,2
 204 583 204 583 190.5 569.5 c 128,-1,3
 177 556 177 556 169 538 c 128,-1,4
 161 520 161 520 161 500 c 2,5,-1
 161 201 l 2,6,7
 161 181 161 181 169 163 c 128,-1,8
 177 145 177 145 190.5 131.5 c 128,-1,9
 204 118 204 118 222 110 c 128,-1,10
 240 102 240 102 260 102 c 0,11,12
 294 102 294 102 320.5 123 c 128,-1,13
 347 144 347 144 356 176 c 1,14,-1
 367 181 l 1,15,-1
 455 130 l 1,16,-1
 459 120 l 1,17,18
 447 90 447 90 426.5 65.5 c 128,-1,19
 406 41 406 41 380 23 c 128,-1,20
 354 5 354 5 323.5 -4.5 c 128,-1,21
 293 -14 293 -14 260 -14 c 0,22,23
 216 -14 216 -14 176.5 3 c 128,-1,24
 137 20 137 20 108 49 c 128,-1,25
 79 78 79 78 62 117.5 c 128,-1,26
 45 157 45 157 45 201 c 2,27,-1
 45 500 l 2,28,29
 45 544 45 544 62 583 c 128,-1,30
 79 622 79 622 108 651 c 128,-1,31
 137 680 137 680 176.5 697 c 128,-1,32
 216 714 216 714 260 714 c 0,33,34
 293 714 293 714 323.5 704.5 c 128,-1,35
 354 695 354 695 380 677.5 c 128,-1,36
 406 660 406 660 426.5 635.5 c 128,-1,37
 447 611 447 611 459 581 c 1,38,-1
 455 571 l 1,39,-1
 367 520 l 1,40,-1
 356 525 l 1,41,42
 347 557 347 557 320.5 578 c 128,-1,43
 294 599 294 599 260 599 c 0,0,1
EndSplineSet
Validated: 1
EndChar

StartChar: D
Encoding: 68 68 27
Width: 534
Flags: W
LayerCount: 2
Fore
SplineSet
175 585 m 1,0,-1
 175 116 l 1,1,-1
 274 116 l 2,2,3
 294 116 294 116 312 124 c 128,-1,4
 330 132 330 132 343.5 145.5 c 128,-1,5
 357 159 357 159 365 177 c 128,-1,6
 373 195 373 195 373 215 c 2,7,-1
 373 486 l 2,8,9
 373 506 373 506 365 524 c 128,-1,10
 357 542 357 542 343.5 555.5 c 128,-1,11
 330 569 330 569 312 577 c 128,-1,12
 294 585 294 585 274 585 c 2,13,-1
 175 585 l 1,0,-1
60 8 m 1,14,-1
 60 692 l 1,15,-1
 68 700 l 1,16,-1
 274 700 l 2,17,18
 318 700 318 700 357 683 c 128,-1,19
 396 666 396 666 425.5 637 c 128,-1,20
 455 608 455 608 472 569 c 128,-1,21
 489 530 489 530 489 486 c 2,22,-1
 489 215 l 2,23,24
 489 171 489 171 472 131.5 c 128,-1,25
 455 92 455 92 425.5 63 c 128,-1,26
 396 34 396 34 357 17 c 128,-1,27
 318 0 318 0 274 0 c 2,28,-1
 68 0 l 1,29,-1
 60 8 l 1,14,-1
EndSplineSet
Validated: 1
EndChar

StartChar: E
Encoding: 69 69 28
Width: 477
Flags: W
LayerCount: 2
Fore
SplineSet
176 585 m 1,0,-1
 176 415 l 1,1,-1
 381 415 l 1,2,-1
 389 407 l 1,3,-1
 389 308 l 1,4,-1
 381 300 l 1,5,-1
 176 300 l 1,6,-1
 176 116 l 1,7,-1
 424 116 l 1,8,-1
 432 108 l 1,9,-1
 432 8 l 1,10,-1
 424 0 l 1,11,-1
 68 0 l 1,12,-1
 60 8 l 1,13,-1
 60 692 l 1,14,-1
 68 700 l 1,15,-1
 424 700 l 1,16,-1
 432 692 l 1,17,-1
 432 593 l 1,18,-1
 424 585 l 1,19,-1
 176 585 l 1,0,-1
EndSplineSet
Validated: 1
EndChar

StartChar: F
Encoding: 70 70 29
Width: 473
Flags: W
LayerCount: 2
Fore
SplineSet
176 585 m 1,0,-1
 176 415 l 1,1,-1
 382 415 l 1,2,-1
 390 407 l 1,3,-1
 390 308 l 1,4,-1
 382 300 l 1,5,-1
 176 300 l 1,6,-1
 176 8 l 1,7,-1
 168 0 l 1,8,-1
 68 0 l 1,9,-1
 60 8 l 1,10,-1
 60 692 l 1,11,-1
 68 700 l 1,12,-1
 425 700 l 1,13,-1
 433 692 l 1,14,-1
 433 593 l 1,15,-1
 425 585 l 1,16,-1
 176 585 l 1,0,-1
EndSplineSet
Validated: 1
EndChar

StartChar: G
Encoding: 71 71 30
Width: 519
Flags: W
LayerCount: 2
Fore
SplineSet
358 300 m 1,0,-1
 281 300 l 1,1,-1
 273 308 l 1,2,-1
 273 408 l 1,3,-1
 281 416 l 1,4,-1
 466 416 l 1,5,-1
 474 408 l 1,6,-1
 474 201 l 2,7,8
 474 157 474 157 457 117.5 c 128,-1,9
 440 78 440 78 411 49 c 128,-1,10
 382 20 382 20 343 3 c 128,-1,11
 304 -14 304 -14 259 -14 c 0,12,13
 215 -14 215 -14 176 3 c 128,-1,14
 137 20 137 20 108 49 c 128,-1,15
 79 78 79 78 62 117.5 c 128,-1,16
 45 157 45 157 45 201 c 2,17,-1
 45 500 l 2,18,19
 45 544 45 544 62 583 c 128,-1,20
 79 622 79 622 108 651 c 128,-1,21
 137 680 137 680 176 697 c 128,-1,22
 215 714 215 714 259 714 c 0,23,24
 325 714 325 714 379 677.5 c 128,-1,25
 433 641 433 641 458 581 c 1,26,-1
 455 571 l 1,27,-1
 367 520 l 1,28,-1
 355 525 l 1,29,30
 346 557 346 557 319.5 578 c 128,-1,31
 293 599 293 599 259 599 c 0,32,33
 239 599 239 599 221 591 c 128,-1,34
 203 583 203 583 189.5 569.5 c 128,-1,35
 176 556 176 556 168.5 538 c 128,-1,36
 161 520 161 520 161 500 c 2,37,-1
 161 201 l 2,38,39
 161 181 161 181 168.5 163 c 128,-1,40
 176 145 176 145 189.5 131.5 c 128,-1,41
 203 118 203 118 221 110 c 128,-1,42
 239 102 239 102 259 102 c 0,43,44
 280 102 280 102 298 110 c 128,-1,45
 316 118 316 118 329.5 131.5 c 128,-1,46
 343 145 343 145 350.5 163 c 128,-1,47
 358 181 358 181 358 201 c 2,48,-1
 358 300 l 1,0,-1
EndSplineSet
Validated: 1
EndChar

StartChar: H
Encoding: 72 72 31
Width: 535
Flags: W
LayerCount: 2
Fore
SplineSet
176 415 m 1,0,-1
 359 415 l 1,1,-1
 359 692 l 1,2,-1
 367 700 l 1,3,-1
 467 700 l 1,4,-1
 475 692 l 1,5,-1
 475 8 l 1,6,-1
 467 0 l 1,7,-1
 367 0 l 1,8,-1
 359 8 l 1,9,-1
 359 300 l 1,10,-1
 176 300 l 1,11,-1
 176 8 l 1,12,-1
 168 0 l 1,13,-1
 68 0 l 1,14,-1
 60 8 l 1,15,-1
 60 692 l 1,16,-1
 68 700 l 1,17,-1
 168 700 l 1,18,-1
 176 692 l 1,19,-1
 176 415 l 1,0,-1
EndSplineSet
Validated: 1
EndChar

StartChar: I
Encoding: 73 73 32
Width: 236
Flags: W
LayerCount: 2
Fore
SplineSet
176 8 m 1,0,-1
 168 0 l 1,1,-1
 68 0 l 1,2,-1
 60 8 l 1,3,-1
 60 692 l 1,4,-1
 68 700 l 1,5,-1
 168 700 l 1,6,-1
 176 692 l 1,7,-1
 176 8 l 1,0,-1
EndSplineSet
Validated: 1
EndChar

StartChar: J
Encoding: 74 74 33
Width: 483
Flags: W
LayerCount: 2
Fore
SplineSet
313 692 m 1,0,-1
 321 700 l 1,1,-1
 420 700 l 1,2,-1
 428 692 l 1,3,-1
 428 201 l 2,4,5
 428 157 428 157 411 117.5 c 128,-1,6
 394 78 394 78 365 49 c 128,-1,7
 336 20 336 20 297 3 c 128,-1,8
 258 -14 258 -14 214 -14 c 0,9,10
 181 -14 181 -14 150.5 -4.5 c 128,-1,11
 120 5 120 5 94 23 c 128,-1,12
 68 41 68 41 47.5 65.5 c 128,-1,13
 27 90 27 90 15 120 c 1,14,-1
 18 130 l 1,15,-1
 106 180 l 1,16,-1
 118 175 l 1,17,18
 127 143 127 143 153.5 122.5 c 128,-1,19
 180 102 180 102 214 102 c 0,20,21
 234 102 234 102 252 110 c 128,-1,22
 270 118 270 118 283.5 131.5 c 128,-1,23
 297 145 297 145 305 163 c 128,-1,24
 313 181 313 181 313 201 c 2,25,-1
 313 692 l 1,0,-1
EndSplineSet
Validated: 1
EndChar

StartChar: K
Encoding: 75 75 34
Width: 518
Flags: W
LayerCount: 2
Fore
SplineSet
176 265 m 1,0,-1
 176 8 l 1,1,-1
 168 0 l 1,2,-1
 68 0 l 1,3,-1
 60 8 l 1,4,-1
 60 692 l 1,5,-1
 68 700 l 1,6,-1
 168 700 l 1,7,-1
 176 692 l 1,8,-1
 176 435 l 1,9,-1
 354 697 l 1,10,-1
 361 700 l 1,11,-1
 482 700 l 1,12,-1
 488 688 l 1,13,-1
 258 350 l 1,14,-1
 488 13 l 1,15,-1
 482 0 l 1,16,-1
 361 0 l 1,17,-1
 354 4 l 1,18,-1
 176 265 l 1,0,-1
EndSplineSet
Validated: 1
EndChar

StartChar: L
Encoding: 76 76 35
Width: 457
Flags: W
LayerCount: 2
Fore
SplineSet
176 116 m 1,0,-1
 424 116 l 1,1,-1
 432 108 l 1,2,-1
 432 8 l 1,3,-1
 424 0 l 1,4,-1
 68 0 l 1,5,-1
 60 8 l 1,6,-1
 60 692 l 1,7,-1
 68 700 l 1,8,-1
 168 700 l 1,9,-1
 176 692 l 1,10,-1
 176 116 l 1,0,-1
EndSplineSet
Validated: 1
EndChar

StartChar: M
Encoding: 77 77 36
Width: 549
Flags: W
LayerCount: 2
Fore
SplineSet
373 449 m 1,0,-1
 282 255 l 1,1,-1
 267 255 l 1,2,-1
 175 449 l 1,3,-1
 175 8 l 1,4,-1
 167 0 l 1,5,-1
 68 0 l 1,6,-1
 60 8 l 1,7,-1
 60 692 l 1,8,-1
 68 700 l 1,9,-1
 167 700 l 1,10,-1
 175 695 l 1,11,-1
 274 485 l 1,12,-1
 374 695 l 1,13,-1
 381 700 l 1,14,-1
 481 700 l 1,15,-1
 489 692 l 1,16,-1
 489 8 l 1,17,-1
 481 0 l 1,18,-1
 381 0 l 1,19,-1
 373 8 l 1,20,-1
 373 449 l 1,0,-1
EndSplineSet
Validated: 1
EndChar

StartChar: N
Encoding: 78 78 37
Width: 549
Flags: W
LayerCount: 2
Fore
SplineSet
374 276 m 1,0,-1
 374 692 l 1,1,-1
 382 700 l 1,2,-1
 481 700 l 1,3,-1
 489 692 l 1,4,-1
 489 8 l 1,5,-1
 481 0 l 1,6,-1
 393 0 l 1,7,-1
 386 5 l 1,8,-1
 176 449 l 1,9,-1
 176 8 l 1,10,-1
 168 0 l 1,11,-1
 68 0 l 1,12,-1
 60 8 l 1,13,-1
 60 692 l 1,14,-1
 68 700 l 1,15,-1
 168 700 l 1,16,-1
 175 695 l 1,17,-1
 374 276 l 1,0,-1
EndSplineSet
Validated: 1
EndChar

StartChar: O
Encoding: 79 79 38
Width: 519
Flags: W
LayerCount: 2
Fore
SplineSet
260 598 m 0,0,1
 218 598 218 598 189.5 569.5 c 128,-1,2
 161 541 161 541 161 500 c 2,3,-1
 161 201 l 2,4,5
 161 181 161 181 168.5 163 c 128,-1,6
 176 145 176 145 189.5 131.5 c 128,-1,7
 203 118 203 118 221 110 c 128,-1,8
 239 102 239 102 260 102 c 0,9,10
 280 102 280 102 298 110 c 128,-1,11
 316 118 316 118 329.5 131.5 c 128,-1,12
 343 145 343 145 351 163 c 128,-1,13
 359 181 359 181 359 201 c 2,14,-1
 359 500 l 2,15,16
 359 520 359 520 351 538 c 128,-1,17
 343 556 343 556 329.5 569.5 c 128,-1,18
 316 583 316 583 298 590.5 c 128,-1,19
 280 598 280 598 260 598 c 0,0,1
260 714 m 256,20,21
 304 714 304 714 343 697 c 128,-1,22
 382 680 382 680 411 651 c 128,-1,23
 440 622 440 622 457 583 c 128,-1,24
 474 544 474 544 474 500 c 2,25,-1
 474 201 l 2,26,27
 474 157 474 157 457 117.5 c 128,-1,28
 440 78 440 78 411 49 c 128,-1,29
 382 20 382 20 343 3 c 128,-1,30
 304 -14 304 -14 260 -14 c 256,31,32
 216 -14 216 -14 176.5 3 c 128,-1,33
 137 20 137 20 108 49 c 128,-1,34
 79 78 79 78 62 117.5 c 128,-1,35
 45 157 45 157 45 201 c 2,36,-1
 45 500 l 2,37,38
 45 544 45 544 62 583 c 128,-1,39
 79 622 79 622 108 651 c 128,-1,40
 137 680 137 680 176.5 697 c 128,-1,41
 216 714 216 714 260 714 c 256,20,21
EndSplineSet
Validated: 1
EndChar

StartChar: P
Encoding: 80 80 39
Width: 525
Flags: W
LayerCount: 2
Fore
SplineSet
176 584 m 1,0,-1
 176 401 l 1,1,-1
 282 401 l 2,2,3
 301 401 301 401 318 408 c 128,-1,4
 335 415 335 415 347.5 427.5 c 128,-1,5
 360 440 360 440 367 457 c 128,-1,6
 374 474 374 474 374 493 c 256,7,8
 374 512 374 512 367 528.5 c 128,-1,9
 360 545 360 545 347.5 557.5 c 128,-1,10
 335 570 335 570 318 577 c 128,-1,11
 301 584 301 584 282 584 c 2,12,-1
 176 584 l 1,0,-1
176 285 m 1,13,-1
 176 8 l 1,14,-1
 168 0 l 1,15,-1
 68 0 l 1,16,-1
 60 8 l 1,17,-1
 60 692 l 1,18,-1
 68 700 l 1,19,-1
 282 700 l 2,20,21
 325 700 325 700 362.5 683.5 c 128,-1,22
 400 667 400 667 428.5 639 c 128,-1,23
 457 611 457 611 473.5 573.5 c 128,-1,24
 490 536 490 536 490 493 c 256,25,26
 490 450 490 450 473.5 412.5 c 128,-1,27
 457 375 457 375 428.5 346.5 c 128,-1,28
 400 318 400 318 362.5 301.5 c 128,-1,29
 325 285 325 285 282 285 c 2,30,-1
 176 285 l 1,13,-1
EndSplineSet
Validated: 1
EndChar

StartChar: Q
Encoding: 81 81 40
Width: 524
Flags: W
LayerCount: 2
Fore
SplineSet
260 598 m 0,0,1
 218 598 218 598 189.5 569.5 c 128,-1,2
 161 541 161 541 161 500 c 2,3,-1
 161 201 l 2,4,5
 161 181 161 181 168.5 163 c 128,-1,6
 176 145 176 145 189.5 131.5 c 128,-1,7
 203 118 203 118 221 110 c 128,-1,8
 239 102 239 102 260 102 c 0,9,10
 280 102 280 102 298 110 c 128,-1,11
 316 118 316 118 329.5 131.5 c 128,-1,12
 343 145 343 145 350.5 163 c 128,-1,13
 358 181 358 181 358 201 c 2,14,-1
 358 500 l 2,15,16
 358 541 358 541 329.5 569.5 c 128,-1,17
 301 598 301 598 260 598 c 0,0,1
326 -3 m 1,18,19
 291 -14 291 -14 260 -14 c 0,20,21
 215 -14 215 -14 176 3 c 128,-1,22
 137 20 137 20 108 49 c 128,-1,23
 79 78 79 78 62 117.5 c 128,-1,24
 45 157 45 157 45 201 c 2,25,-1
 45 500 l 2,26,27
 45 544 45 544 62 583 c 128,-1,28
 79 622 79 622 108 651 c 128,-1,29
 137 680 137 680 176 697 c 128,-1,30
 215 714 215 714 260 714 c 0,31,32
 304 714 304 714 343 697 c 128,-1,33
 382 680 382 680 411 651 c 128,-1,34
 440 622 440 622 457 583 c 128,-1,35
 474 544 474 544 474 500 c 2,36,-1
 474 201 l 2,37,38
 474 122 474 122 423 62 c 1,39,-1
 473 -45 l 1,40,-1
 466 -57 l 1,41,-1
 356 -57 l 1,42,-1
 349 -52 l 1,43,-1
 326 -3 l 1,18,19
EndSplineSet
Validated: 1
EndChar

StartChar: R
Encoding: 82 82 41
Width: 535
Flags: W
LayerCount: 2
Fore
SplineSet
176 415 m 1,0,-1
 289 415 l 2,1,2
 324 415 324 415 349 440 c 128,-1,3
 374 465 374 465 374 500 c 0,4,5
 374 517 374 517 367.5 532.5 c 128,-1,6
 361 548 361 548 349.5 559.5 c 128,-1,7
 338 571 338 571 322.5 577.5 c 128,-1,8
 307 584 307 584 289 584 c 2,9,-1
 176 584 l 1,10,-1
 176 415 l 1,0,-1
377 320 m 1,11,-1
 489 11 l 1,12,-1
 482 0 l 1,13,-1
 375 0 l 1,14,-1
 368 5 l 1,15,-1
 261 299 l 1,16,-1
 176 299 l 1,17,-1
 176 8 l 1,18,-1
 168 0 l 1,19,-1
 68 0 l 1,20,-1
 60 8 l 1,21,-1
 60 692 l 1,22,-1
 68 700 l 1,23,-1
 289 700 l 2,24,25
 330 700 330 700 366.5 684 c 128,-1,26
 403 668 403 668 430.5 641 c 128,-1,27
 458 614 458 614 474 577.5 c 128,-1,28
 490 541 490 541 490 500 c 0,29,30
 490 442 490 442 459 393.5 c 128,-1,31
 428 345 428 345 377 320 c 1,11,-1
EndSplineSet
Validated: 1
EndChar

StartChar: S
Encoding: 83 83 42
Width: 497
Flags: W
LayerCount: 2
Fore
SplineSet
248 102 m 0,0,1
 265 102 265 102 281.5 108 c 128,-1,2
 298 114 298 114 310.5 124.5 c 128,-1,3
 323 135 323 135 331 150 c 128,-1,4
 339 165 339 165 339 183 c 0,5,6
 339 205 339 205 328.5 223 c 128,-1,7
 318 241 318 241 302 254.5 c 128,-1,8
 286 268 286 268 266.5 278 c 128,-1,9
 247 288 247 288 228 296 c 0,10,11
 204 306 204 306 180.5 316.5 c 128,-1,12
 157 327 157 327 135.5 341 c 128,-1,13
 114 355 114 355 95 374.5 c 128,-1,14
 76 394 76 394 61 421 c 0,15,16
 35 467 35 467 35 518 c 0,17,18
 35 565 35 565 57.5 607 c 128,-1,19
 80 649 80 649 118 675 c 0,20,21
 147 695 147 695 180 704.5 c 128,-1,22
 213 714 213 714 248 714 c 0,23,24
 314 714 314 714 367 677.5 c 128,-1,25
 420 641 420 641 446 581 c 1,26,-1
 443 571 l 1,27,-1
 351 514 l 1,28,-1
 339 519 l 1,29,30
 331 549 331 549 305.5 573.5 c 128,-1,31
 280 598 280 598 248 598 c 0,32,33
 210 598 210 598 184 578 c 128,-1,34
 158 558 158 558 158 524 c 0,35,36
 158 500 158 500 167 482.5 c 128,-1,37
 176 465 176 465 192 452 c 128,-1,38
 208 439 208 439 228.5 429 c 128,-1,39
 249 419 249 419 272 409 c 0,40,41
 319 389 319 389 363 361 c 128,-1,42
 407 333 407 333 436 286 c 0,43,44
 450 263 450 263 456 238.5 c 128,-1,45
 462 214 462 214 462 188 c 0,46,47
 462 140 462 140 439.5 97.5 c 128,-1,48
 417 55 417 55 379 28 c 0,49,50
 350 7 350 7 316.5 -3.5 c 128,-1,51
 283 -14 283 -14 248 -14 c 0,52,53
 214 -14 214 -14 182.5 -5 c 128,-1,54
 151 4 151 4 123.5 21 c 128,-1,55
 96 38 96 38 74.5 62.5 c 128,-1,56
 53 87 53 87 40 119 c 1,57,-1
 44 129 l 1,58,-1
 132 180 l 1,59,-1
 143 175 l 1,60,61
 153 140 153 140 182.5 121 c 128,-1,62
 212 102 212 102 248 102 c 0,0,1
EndSplineSet
Validated: 1
EndChar

StartChar: T
Encoding: 84 84 43
Width: 479
Flags: W
LayerCount: 2
Fore
SplineSet
297 584 m 1,0,-1
 297 8 l 1,1,-1
 289 0 l 1,2,-1
 190 0 l 1,3,-1
 182 8 l 1,4,-1
 182 584 l 1,5,-1
 33 584 l 1,6,-1
 25 592 l 1,7,-1
 25 692 l 1,8,-1
 33 700 l 1,9,-1
 446 700 l 1,10,-1
 454 692 l 1,11,-1
 454 592 l 1,12,-1
 446 584 l 1,13,-1
 297 584 l 1,0,-1
EndSplineSet
Validated: 1
EndChar

StartChar: U
Encoding: 85 85 44
Width: 529
Flags: W
LayerCount: 2
Fore
SplineSet
166 692 m 1,0,-1
 166 200 l 2,1,2
 166 180 166 180 174 162 c 128,-1,3
 182 144 182 144 195.5 130.5 c 128,-1,4
 209 117 209 117 227 109.5 c 128,-1,5
 245 102 245 102 265 102 c 256,6,7
 285 102 285 102 303 109.5 c 128,-1,8
 321 117 321 117 334.5 130.5 c 128,-1,9
 348 144 348 144 356 162 c 128,-1,10
 364 180 364 180 364 200 c 2,11,-1
 364 692 l 1,12,-1
 372 700 l 1,13,-1
 471 700 l 1,14,-1
 479 692 l 1,15,-1
 479 200 l 2,16,17
 479 156 479 156 462 117 c 128,-1,18
 445 78 445 78 416 49 c 128,-1,19
 387 20 387 20 348 3 c 128,-1,20
 309 -14 309 -14 265 -14 c 256,21,22
 221 -14 221 -14 181.5 3 c 128,-1,23
 142 20 142 20 113 49 c 128,-1,24
 84 78 84 78 67 117 c 128,-1,25
 50 156 50 156 50 200 c 2,26,-1
 50 692 l 1,27,-1
 58 700 l 1,28,-1
 158 700 l 1,29,-1
 166 692 l 1,0,-1
EndSplineSet
Validated: 1
EndChar

StartChar: V
Encoding: 86 86 45
Width: 479
Flags: W
LayerCount: 2
Fore
SplineSet
239 310 m 1,0,-1
 335 694 l 1,1,-1
 343 700 l 1,2,-1
 446 700 l 1,3,-1
 454 690 l 1,4,-1
 283 6 l 1,5,-1
 275 0 l 1,6,-1
 204 0 l 1,7,-1
 196 6 l 1,8,-1
 25 690 l 1,9,-1
 33 700 l 1,10,-1
 135 700 l 1,11,-1
 143 694 l 1,12,-1
 239 310 l 1,0,-1
EndSplineSet
Validated: 1
EndChar

StartChar: W
Encoding: 87 87 46
Width: 537
Flags: W
LayerCount: 2
Fore
SplineSet
211 5 m 1,0,-1
 204 0 l 1,1,-1
 104 0 l 1,2,-1
 96 7 l 1,3,-1
 40 692 l 1,4,-1
 47 700 l 1,5,-1
 147 700 l 1,6,-1
 155 692 l 1,7,-1
 192 252 l 1,8,-1
 261 430 l 1,9,-1
 276 430 l 1,10,-1
 345 252 l 1,11,-1
 382 692 l 1,12,-1
 390 700 l 1,13,-1
 490 700 l 1,14,-1
 497 692 l 1,15,-1
 441 7 l 1,16,-1
 433 0 l 1,17,-1
 333 0 l 1,18,-1
 326 5 l 1,19,-1
 268 185 l 1,20,-1
 211 5 l 1,0,-1
EndSplineSet
Validated: 1
EndChar

StartChar: X
Encoding: 88 88 47
Width: 468
Flags: W
LayerCount: 2
Fore
SplineSet
234 492 m 1,0,-1
 324 695 l 1,1,-1
 331 700 l 1,2,-1
 440 700 l 1,3,-1
 448 689 l 1,4,-1
 297 350 l 1,5,-1
 447 11 l 1,6,-1
 440 0 l 1,7,-1
 331 0 l 1,8,-1
 324 5 l 1,9,-1
 234 207 l 1,10,-1
 144 5 l 1,11,-1
 136 0 l 1,12,-1
 27 0 l 1,13,-1
 20 11 l 1,14,-1
 170 350 l 1,15,-1
 20 689 l 1,16,-1
 27 700 l 1,17,-1
 136 700 l 1,18,-1
 143 695 l 1,19,-1
 234 492 l 1,0,-1
EndSplineSet
Validated: 1
EndChar

StartChar: Y
Encoding: 89 89 48
Width: 468
Flags: W
LayerCount: 2
Fore
SplineSet
234 492 m 1,0,-1
 324 695 l 1,1,-1
 332 700 l 1,2,-1
 441 700 l 1,3,-1
 448 689 l 1,4,-1
 292 337 l 1,5,-1
 292 8 l 1,6,-1
 284 0 l 1,7,-1
 184 0 l 1,8,-1
 176 8 l 1,9,-1
 176 337 l 1,10,-1
 20 689 l 1,11,-1
 27 700 l 1,12,-1
 137 700 l 1,13,-1
 144 695 l 1,14,-1
 234 492 l 1,0,-1
EndSplineSet
Validated: 1
EndChar

StartChar: Z
Encoding: 90 90 49
Width: 519
Flags: W
LayerCount: 2
Fore
SplineSet
324 584 m 1,0,-1
 53 584 l 1,1,-1
 45 592 l 1,2,-1
 45 692 l 1,3,-1
 53 700 l 1,4,-1
 466 700 l 1,5,-1
 474 692 l 1,6,-1
 474 621 l 1,7,-1
 473 617 l 1,8,-1
 195 116 l 1,9,-1
 466 116 l 1,10,-1
 474 108 l 1,11,-1
 474 8 l 1,12,-1
 466 0 l 1,13,-1
 53 0 l 1,14,-1
 45 8 l 1,15,-1
 45 79 l 1,16,-1
 46 83 l 1,17,-1
 324 584 l 1,0,-1
EndSplineSet
Validated: 1
EndChar

StartChar: a
Encoding: 97 97 50
Width: 469
Flags: W
LayerCount: 2
Fore
SplineSet
307 694 m 1,0,-1
 449 10 l 1,1,-1
 441 0 l 1,2,-1
 342 0 l 1,3,-1
 334 6 l 1,4,-1
 299 184 l 1,5,-1
 171 184 l 1,6,-1
 135 6 l 1,7,-1
 128 0 l 1,8,-1
 28 0 l 1,9,-1
 20 10 l 1,10,-1
 163 694 l 1,11,-1
 171 700 l 1,12,-1
 299 700 l 1,13,-1
 307 694 l 1,0,-1
275 300 m 1,14,-1
 235 502 l 1,15,-1
 194 300 l 1,16,-1
 275 300 l 1,14,-1
EndSplineSet
Validated: 1
EndChar

StartChar: b
Encoding: 98 98 51
Width: 524
Flags: W
LayerCount: 2
Fore
SplineSet
176 116 m 1,0,-1
 282 116 l 2,1,2
 320 116 320 116 347 143 c 128,-1,3
 374 170 374 170 374 208 c 256,4,5
 374 246 374 246 347 273 c 128,-1,6
 320 300 320 300 282 300 c 2,7,-1
 176 300 l 1,8,-1
 176 116 l 1,0,-1
176 585 m 1,9,-1
 176 415 l 1,10,-1
 260 415 l 2,11,12
 278 415 278 415 293.5 422 c 128,-1,13
 309 429 309 429 320.5 440.5 c 128,-1,14
 332 452 332 452 338.5 467.5 c 128,-1,15
 345 483 345 483 345 500 c 256,16,17
 345 517 345 517 338.5 532.5 c 128,-1,18
 332 548 332 548 320.5 559.5 c 128,-1,19
 309 571 309 571 293.5 578 c 128,-1,20
 278 585 278 585 260 585 c 2,21,-1
 176 585 l 1,9,-1
412 369 m 1,22,23
 449 340 449 340 469 298 c 128,-1,24
 489 256 489 256 489 208 c 0,25,26
 489 165 489 165 472.5 127.5 c 128,-1,27
 456 90 456 90 428 61.5 c 128,-1,28
 400 33 400 33 362.5 16.5 c 128,-1,29
 325 0 325 0 282 0 c 2,30,-1
 68 0 l 1,31,-1
 60 8 l 1,32,-1
 60 692 l 1,33,-1
 68 700 l 1,34,-1
 260 700 l 2,35,36
 302 700 302 700 338.5 684 c 128,-1,37
 375 668 375 668 402 641 c 128,-1,38
 429 614 429 614 445 577.5 c 128,-1,39
 461 541 461 541 461 500 c 0,40,41
 461 464 461 464 448 430.5 c 128,-1,42
 435 397 435 397 412 369 c 1,22,23
EndSplineSet
Validated: 1
EndChar

StartChar: c
Encoding: 99 99 52
Width: 504
Flags: W
LayerCount: 2
Fore
SplineSet
260 599 m 0,0,1
 240 599 240 599 222 591 c 128,-1,2
 204 583 204 583 190.5 569.5 c 128,-1,3
 177 556 177 556 169 538 c 128,-1,4
 161 520 161 520 161 500 c 2,5,-1
 161 201 l 2,6,7
 161 181 161 181 169 163 c 128,-1,8
 177 145 177 145 190.5 131.5 c 128,-1,9
 204 118 204 118 222 110 c 128,-1,10
 240 102 240 102 260 102 c 0,11,12
 294 102 294 102 320.5 123 c 128,-1,13
 347 144 347 144 356 176 c 1,14,-1
 367 181 l 1,15,-1
 455 130 l 1,16,-1
 459 120 l 1,17,18
 447 90 447 90 426.5 65.5 c 128,-1,19
 406 41 406 41 380 23 c 128,-1,20
 354 5 354 5 323.5 -4.5 c 128,-1,21
 293 -14 293 -14 260 -14 c 0,22,23
 216 -14 216 -14 176.5 3 c 128,-1,24
 137 20 137 20 108 49 c 128,-1,25
 79 78 79 78 62 117.5 c 128,-1,26
 45 157 45 157 45 201 c 2,27,-1
 45 500 l 2,28,29
 45 544 45 544 62 583 c 128,-1,30
 79 622 79 622 108 651 c 128,-1,31
 137 680 137 680 176.5 697 c 128,-1,32
 216 714 216 714 260 714 c 0,33,34
 293 714 293 714 323.5 704.5 c 128,-1,35
 354 695 354 695 380 677.5 c 128,-1,36
 406 660 406 660 426.5 635.5 c 128,-1,37
 447 611 447 611 459 581 c 1,38,-1
 455 571 l 1,39,-1
 367 520 l 1,40,-1
 356 525 l 1,41,42
 347 557 347 557 320.5 578 c 128,-1,43
 294 599 294 599 260 599 c 0,0,1
EndSplineSet
Validated: 1
EndChar

StartChar: glyph95
Encoding: 65539 -1 53
Width: 790
Flags: W
LayerCount: 2
Fore
SplineSet
395 700 m 1,0,-1
 395 665 l 1,1,-1
 242 665 l 1,2,3
 277 682 277 682 315 691 c 128,-1,4
 353 700 353 700 395 700 c 1,0,-1
115 140 m 1,5,-1
 395 140 l 1,6,-1
 395 175 l 1,7,-1
 698 175 l 1,8,9
 688 158 688 158 675 140 c 1,10,-1
 395 140 l 1,11,-1
 395 105 l 1,12,-1
 645 105 l 1,13,14
 635 95 635 95 625.5 86.5 c 128,-1,15
 616 78 616 78 605 70 c 1,16,-1
 395 70 l 1,17,-1
 395 105 l 1,18,-1
 145 105 l 1,19,20
 130 120 130 120 115 140 c 1,5,-1
395 595 m 1,21,-1
 645 595 l 1,22,23
 660 580 660 580 675 560 c 1,24,-1
 395 560 l 1,25,-1
 395 525 l 1,26,-1
 92 525 l 1,27,28
 102 542 102 542 115 560 c 1,29,-1
 395 560 l 1,30,-1
 395 595 l 1,31,-1
 145 595 l 1,32,33
 154 605 154 605 164 613.5 c 128,-1,34
 174 622 174 622 185 630 c 1,35,-1
 395 630 l 1,36,-1
 395 595 l 1,21,-1
74 210 m 1,37,-1
 395 210 l 1,38,-1
 395 245 l 1,39,-1
 729 245 l 1,40,41
 726 236 726 236 723 227 c 128,-1,42
 720 218 720 218 716 210 c 1,43,-1
 395 210 l 1,44,-1
 395 175 l 1,45,-1
 92 175 l 1,46,47
 82 191 82 191 74 210 c 1,37,-1
395 35 m 1,48,-1
 548 35 l 1,49,50
 513 18 513 18 475 9 c 128,-1,51
 437 0 437 0 395 0 c 1,52,-1
 395 35 l 1,48,-1
395 315 m 1,53,-1
 743 315 l 1,54,55
 742 306 742 306 741 297 c 128,-1,56
 740 288 740 288 738 280 c 1,57,-1
 395 280 l 1,58,-1
 395 245 l 1,59,-1
 61 245 l 1,60,61
 55 261 55 261 52 280 c 1,62,-1
 395 280 l 1,63,-1
 395 315 l 1,53,-1
395 385 m 1,64,-1
 743 385 l 1,65,66
 744 376 744 376 744.5 367.5 c 128,-1,67
 745 359 745 359 745 350 c 1,68,-1
 395 350 l 1,69,-1
 395 315 l 1,70,-1
 47 315 l 1,71,72
 46 323 46 323 45.5 332 c 128,-1,73
 45 341 45 341 45 350 c 1,74,-1
 395 350 l 1,75,-1
 395 385 l 1,64,-1
395 455 m 1,76,-1
 729 455 l 1,77,78
 731 447 731 447 733.5 438 c 128,-1,79
 736 429 736 429 738 420 c 1,80,-1
 395 420 l 1,81,-1
 395 385 l 1,82,-1
 47 385 l 1,83,84
 48 394 48 394 49 402.5 c 128,-1,85
 50 411 50 411 52 420 c 1,86,-1
 395 420 l 1,87,-1
 395 455 l 1,76,-1
395 525 m 1,88,-1
 698 525 l 1,89,90
 708 509 708 509 716 490 c 1,91,-1
 395 490 l 1,92,-1
 395 455 l 1,93,-1
 61 455 l 1,94,95
 64 464 64 464 67 473 c 128,-1,96
 70 482 70 482 74 490 c 1,97,-1
 395 490 l 1,98,-1
 395 525 l 1,88,-1
EndSplineSet
Validated: 5
EndChar

StartChar: Euro
Encoding: 8364 8364 54
Width: 790
Flags: W
LayerCount: 2
Fore
SplineSet
395 700 m 1,0,-1
 395 665 l 1,1,-1
 242 665 l 1,2,3
 277 682 277 682 315 691 c 128,-1,4
 353 700 353 700 395 700 c 1,0,-1
115 140 m 1,5,-1
 395 140 l 1,6,-1
 395 175 l 1,7,-1
 698 175 l 1,8,9
 688 158 688 158 675 140 c 1,10,-1
 395 140 l 1,11,-1
 395 105 l 1,12,-1
 645 105 l 1,13,14
 635 95 635 95 625.5 86.5 c 128,-1,15
 616 78 616 78 605 70 c 1,16,-1
 395 70 l 1,17,-1
 395 105 l 1,18,-1
 145 105 l 1,19,20
 130 120 130 120 115 140 c 1,5,-1
395 595 m 1,21,-1
 645 595 l 1,22,23
 660 580 660 580 675 560 c 1,24,-1
 395 560 l 1,25,-1
 395 525 l 1,26,-1
 92 525 l 1,27,28
 102 542 102 542 115 560 c 1,29,-1
 395 560 l 1,30,-1
 395 595 l 1,31,-1
 145 595 l 1,32,33
 154 605 154 605 164 613.5 c 128,-1,34
 174 622 174 622 185 630 c 1,35,-1
 395 630 l 1,36,-1
 395 595 l 1,21,-1
74 210 m 1,37,-1
 395 210 l 1,38,-1
 395 245 l 1,39,-1
 729 245 l 1,40,41
 726 236 726 236 723 227 c 128,-1,42
 720 218 720 218 716 210 c 1,43,-1
 395 210 l 1,44,-1
 395 175 l 1,45,-1
 92 175 l 1,46,47
 82 191 82 191 74 210 c 1,37,-1
395 35 m 1,48,-1
 548 35 l 1,49,50
 513 18 513 18 475 9 c 128,-1,51
 437 0 437 0 395 0 c 1,52,-1
 395 35 l 1,48,-1
395 315 m 1,53,-1
 743 315 l 1,54,55
 742 306 742 306 741 297 c 128,-1,56
 740 288 740 288 738 280 c 1,57,-1
 395 280 l 1,58,-1
 395 245 l 1,59,-1
 61 245 l 1,60,61
 55 261 55 261 52 280 c 1,62,-1
 395 280 l 1,63,-1
 395 315 l 1,53,-1
395 385 m 1,64,-1
 743 385 l 1,65,66
 744 376 744 376 744.5 367.5 c 128,-1,67
 745 359 745 359 745 350 c 1,68,-1
 395 350 l 1,69,-1
 395 315 l 1,70,-1
 47 315 l 1,71,72
 46 323 46 323 45.5 332 c 128,-1,73
 45 341 45 341 45 350 c 1,74,-1
 395 350 l 1,75,-1
 395 385 l 1,64,-1
395 455 m 1,76,-1
 729 455 l 1,77,78
 731 447 731 447 733.5 438 c 128,-1,79
 736 429 736 429 738 420 c 1,80,-1
 395 420 l 1,81,-1
 395 385 l 1,82,-1
 47 385 l 1,83,84
 48 394 48 394 49 402.5 c 128,-1,85
 50 411 50 411 52 420 c 1,86,-1
 395 420 l 1,87,-1
 395 455 l 1,76,-1
395 525 m 1,88,-1
 698 525 l 1,89,90
 708 509 708 509 716 490 c 1,91,-1
 395 490 l 1,92,-1
 395 455 l 1,93,-1
 61 455 l 1,94,95
 64 464 64 464 67 473 c 128,-1,96
 70 482 70 482 74 490 c 1,97,-1
 395 490 l 1,98,-1
 395 525 l 1,88,-1
EndSplineSet
Validated: 5
EndChar

StartChar: glyph97
Encoding: 65540 -1 55
Width: 790
Flags: W
LayerCount: 2
Fore
SplineSet
395 700 m 1,0,-1
 395 665 l 1,1,-1
 242 665 l 1,2,3
 277 682 277 682 315 691 c 128,-1,4
 353 700 353 700 395 700 c 1,0,-1
115 140 m 1,5,-1
 395 140 l 1,6,-1
 395 175 l 1,7,-1
 698 175 l 1,8,9
 688 158 688 158 675 140 c 1,10,-1
 395 140 l 1,11,-1
 395 105 l 1,12,-1
 645 105 l 1,13,14
 635 95 635 95 625.5 86.5 c 128,-1,15
 616 78 616 78 605 70 c 1,16,-1
 395 70 l 1,17,-1
 395 105 l 1,18,-1
 145 105 l 1,19,20
 130 120 130 120 115 140 c 1,5,-1
395 595 m 1,21,-1
 645 595 l 1,22,23
 660 580 660 580 675 560 c 1,24,-1
 395 560 l 1,25,-1
 395 525 l 1,26,-1
 92 525 l 1,27,28
 102 542 102 542 115 560 c 1,29,-1
 395 560 l 1,30,-1
 395 595 l 1,31,-1
 145 595 l 1,32,33
 154 605 154 605 164 613.5 c 128,-1,34
 174 622 174 622 185 630 c 1,35,-1
 395 630 l 1,36,-1
 395 595 l 1,21,-1
74 210 m 1,37,-1
 395 210 l 1,38,-1
 395 245 l 1,39,-1
 729 245 l 1,40,41
 726 236 726 236 723 227 c 128,-1,42
 720 218 720 218 716 210 c 1,43,-1
 395 210 l 1,44,-1
 395 175 l 1,45,-1
 92 175 l 1,46,47
 82 191 82 191 74 210 c 1,37,-1
395 35 m 1,48,-1
 548 35 l 1,49,50
 513 18 513 18 475 9 c 128,-1,51
 437 0 437 0 395 0 c 1,52,-1
 395 35 l 1,48,-1
395 315 m 1,53,-1
 743 315 l 1,54,55
 742 306 742 306 741 297 c 128,-1,56
 740 288 740 288 738 280 c 1,57,-1
 395 280 l 1,58,-1
 395 245 l 1,59,-1
 61 245 l 1,60,61
 55 261 55 261 52 280 c 1,62,-1
 395 280 l 1,63,-1
 395 315 l 1,53,-1
395 385 m 1,64,-1
 743 385 l 1,65,66
 744 376 744 376 744.5 367.5 c 128,-1,67
 745 359 745 359 745 350 c 1,68,-1
 395 350 l 1,69,-1
 395 315 l 1,70,-1
 47 315 l 1,71,72
 46 323 46 323 45.5 332 c 128,-1,73
 45 341 45 341 45 350 c 1,74,-1
 395 350 l 1,75,-1
 395 385 l 1,64,-1
395 455 m 1,76,-1
 729 455 l 1,77,78
 731 447 731 447 733.5 438 c 128,-1,79
 736 429 736 429 738 420 c 1,80,-1
 395 420 l 1,81,-1
 395 385 l 1,82,-1
 47 385 l 1,83,84
 48 394 48 394 49 402.5 c 128,-1,85
 50 411 50 411 52 420 c 1,86,-1
 395 420 l 1,87,-1
 395 455 l 1,76,-1
395 525 m 1,88,-1
 698 525 l 1,89,90
 708 509 708 509 716 490 c 1,91,-1
 395 490 l 1,92,-1
 395 455 l 1,93,-1
 61 455 l 1,94,95
 64 464 64 464 67 473 c 128,-1,96
 70 482 70 482 74 490 c 1,97,-1
 395 490 l 1,98,-1
 395 525 l 1,88,-1
EndSplineSet
Validated: 5
EndChar

StartChar: quotesinglbase
Encoding: 8218 8218 56
Width: 790
Flags: W
LayerCount: 2
Fore
SplineSet
395 700 m 1,0,-1
 395 665 l 1,1,-1
 242 665 l 1,2,3
 277 682 277 682 315 691 c 128,-1,4
 353 700 353 700 395 700 c 1,0,-1
115 140 m 1,5,-1
 395 140 l 1,6,-1
 395 175 l 1,7,-1
 698 175 l 1,8,9
 688 158 688 158 675 140 c 1,10,-1
 395 140 l 1,11,-1
 395 105 l 1,12,-1
 645 105 l 1,13,14
 635 95 635 95 625.5 86.5 c 128,-1,15
 616 78 616 78 605 70 c 1,16,-1
 395 70 l 1,17,-1
 395 105 l 1,18,-1
 145 105 l 1,19,20
 130 120 130 120 115 140 c 1,5,-1
395 595 m 1,21,-1
 645 595 l 1,22,23
 660 580 660 580 675 560 c 1,24,-1
 395 560 l 1,25,-1
 395 525 l 1,26,-1
 92 525 l 1,27,28
 102 542 102 542 115 560 c 1,29,-1
 395 560 l 1,30,-1
 395 595 l 1,31,-1
 145 595 l 1,32,33
 154 605 154 605 164 613.5 c 128,-1,34
 174 622 174 622 185 630 c 1,35,-1
 395 630 l 1,36,-1
 395 595 l 1,21,-1
74 210 m 1,37,-1
 395 210 l 1,38,-1
 395 245 l 1,39,-1
 729 245 l 1,40,41
 726 236 726 236 723 227 c 128,-1,42
 720 218 720 218 716 210 c 1,43,-1
 395 210 l 1,44,-1
 395 175 l 1,45,-1
 92 175 l 1,46,47
 82 191 82 191 74 210 c 1,37,-1
395 35 m 1,48,-1
 548 35 l 1,49,50
 513 18 513 18 475 9 c 128,-1,51
 437 0 437 0 395 0 c 1,52,-1
 395 35 l 1,48,-1
395 315 m 1,53,-1
 743 315 l 1,54,55
 742 306 742 306 741 297 c 128,-1,56
 740 288 740 288 738 280 c 1,57,-1
 395 280 l 1,58,-1
 395 245 l 1,59,-1
 61 245 l 1,60,61
 55 261 55 261 52 280 c 1,62,-1
 395 280 l 1,63,-1
 395 315 l 1,53,-1
395 385 m 1,64,-1
 743 385 l 1,65,66
 744 376 744 376 744.5 367.5 c 128,-1,67
 745 359 745 359 745 350 c 1,68,-1
 395 350 l 1,69,-1
 395 315 l 1,70,-1
 47 315 l 1,71,72
 46 323 46 323 45.5 332 c 128,-1,73
 45 341 45 341 45 350 c 1,74,-1
 395 350 l 1,75,-1
 395 385 l 1,64,-1
395 455 m 1,76,-1
 729 455 l 1,77,78
 731 447 731 447 733.5 438 c 128,-1,79
 736 429 736 429 738 420 c 1,80,-1
 395 420 l 1,81,-1
 395 385 l 1,82,-1
 47 385 l 1,83,84
 48 394 48 394 49 402.5 c 128,-1,85
 50 411 50 411 52 420 c 1,86,-1
 395 420 l 1,87,-1
 395 455 l 1,76,-1
395 525 m 1,88,-1
 698 525 l 1,89,90
 708 509 708 509 716 490 c 1,91,-1
 395 490 l 1,92,-1
 395 455 l 1,93,-1
 61 455 l 1,94,95
 64 464 64 464 67 473 c 128,-1,96
 70 482 70 482 74 490 c 1,97,-1
 395 490 l 1,98,-1
 395 525 l 1,88,-1
EndSplineSet
Validated: 5
EndChar

StartChar: quotedblbase
Encoding: 8222 8222 57
Width: 790
Flags: W
LayerCount: 2
Fore
SplineSet
395 700 m 1,0,-1
 395 665 l 1,1,-1
 242 665 l 1,2,3
 277 682 277 682 315 691 c 128,-1,4
 353 700 353 700 395 700 c 1,0,-1
115 140 m 1,5,-1
 395 140 l 1,6,-1
 395 175 l 1,7,-1
 698 175 l 1,8,9
 688 158 688 158 675 140 c 1,10,-1
 395 140 l 1,11,-1
 395 105 l 1,12,-1
 645 105 l 1,13,14
 635 95 635 95 625.5 86.5 c 128,-1,15
 616 78 616 78 605 70 c 1,16,-1
 395 70 l 1,17,-1
 395 105 l 1,18,-1
 145 105 l 1,19,20
 130 120 130 120 115 140 c 1,5,-1
395 595 m 1,21,-1
 645 595 l 1,22,23
 660 580 660 580 675 560 c 1,24,-1
 395 560 l 1,25,-1
 395 525 l 1,26,-1
 92 525 l 1,27,28
 102 542 102 542 115 560 c 1,29,-1
 395 560 l 1,30,-1
 395 595 l 1,31,-1
 145 595 l 1,32,33
 154 605 154 605 164 613.5 c 128,-1,34
 174 622 174 622 185 630 c 1,35,-1
 395 630 l 1,36,-1
 395 595 l 1,21,-1
74 210 m 1,37,-1
 395 210 l 1,38,-1
 395 245 l 1,39,-1
 729 245 l 1,40,41
 726 236 726 236 723 227 c 128,-1,42
 720 218 720 218 716 210 c 1,43,-1
 395 210 l 1,44,-1
 395 175 l 1,45,-1
 92 175 l 1,46,47
 82 191 82 191 74 210 c 1,37,-1
395 35 m 1,48,-1
 548 35 l 1,49,50
 513 18 513 18 475 9 c 128,-1,51
 437 0 437 0 395 0 c 1,52,-1
 395 35 l 1,48,-1
395 315 m 1,53,-1
 743 315 l 1,54,55
 742 306 742 306 741 297 c 128,-1,56
 740 288 740 288 738 280 c 1,57,-1
 395 280 l 1,58,-1
 395 245 l 1,59,-1
 61 245 l 1,60,61
 55 261 55 261 52 280 c 1,62,-1
 395 280 l 1,63,-1
 395 315 l 1,53,-1
395 385 m 1,64,-1
 743 385 l 1,65,66
 744 376 744 376 744.5 367.5 c 128,-1,67
 745 359 745 359 745 350 c 1,68,-1
 395 350 l 1,69,-1
 395 315 l 1,70,-1
 47 315 l 1,71,72
 46 323 46 323 45.5 332 c 128,-1,73
 45 341 45 341 45 350 c 1,74,-1
 395 350 l 1,75,-1
 395 385 l 1,64,-1
395 455 m 1,76,-1
 729 455 l 1,77,78
 731 447 731 447 733.5 438 c 128,-1,79
 736 429 736 429 738 420 c 1,80,-1
 395 420 l 1,81,-1
 395 385 l 1,82,-1
 47 385 l 1,83,84
 48 394 48 394 49 402.5 c 128,-1,85
 50 411 50 411 52 420 c 1,86,-1
 395 420 l 1,87,-1
 395 455 l 1,76,-1
395 525 m 1,88,-1
 698 525 l 1,89,90
 708 509 708 509 716 490 c 1,91,-1
 395 490 l 1,92,-1
 395 455 l 1,93,-1
 61 455 l 1,94,95
 64 464 64 464 67 473 c 128,-1,96
 70 482 70 482 74 490 c 1,97,-1
 395 490 l 1,98,-1
 395 525 l 1,88,-1
EndSplineSet
Validated: 5
EndChar

StartChar: ellipsis
Encoding: 8230 8230 58
Width: 790
Flags: W
LayerCount: 2
Fore
SplineSet
395 700 m 1,0,-1
 395 665 l 1,1,-1
 242 665 l 1,2,3
 277 682 277 682 315 691 c 128,-1,4
 353 700 353 700 395 700 c 1,0,-1
115 140 m 1,5,-1
 395 140 l 1,6,-1
 395 175 l 1,7,-1
 698 175 l 1,8,9
 688 158 688 158 675 140 c 1,10,-1
 395 140 l 1,11,-1
 395 105 l 1,12,-1
 645 105 l 1,13,14
 635 95 635 95 625.5 86.5 c 128,-1,15
 616 78 616 78 605 70 c 1,16,-1
 395 70 l 1,17,-1
 395 105 l 1,18,-1
 145 105 l 1,19,20
 130 120 130 120 115 140 c 1,5,-1
395 595 m 1,21,-1
 645 595 l 1,22,23
 660 580 660 580 675 560 c 1,24,-1
 395 560 l 1,25,-1
 395 525 l 1,26,-1
 92 525 l 1,27,28
 102 542 102 542 115 560 c 1,29,-1
 395 560 l 1,30,-1
 395 595 l 1,31,-1
 145 595 l 1,32,33
 154 605 154 605 164 613.5 c 128,-1,34
 174 622 174 622 185 630 c 1,35,-1
 395 630 l 1,36,-1
 395 595 l 1,21,-1
74 210 m 1,37,-1
 395 210 l 1,38,-1
 395 245 l 1,39,-1
 729 245 l 1,40,41
 726 236 726 236 723 227 c 128,-1,42
 720 218 720 218 716 210 c 1,43,-1
 395 210 l 1,44,-1
 395 175 l 1,45,-1
 92 175 l 1,46,47
 82 191 82 191 74 210 c 1,37,-1
395 35 m 1,48,-1
 548 35 l 1,49,50
 513 18 513 18 475 9 c 128,-1,51
 437 0 437 0 395 0 c 1,52,-1
 395 35 l 1,48,-1
395 315 m 1,53,-1
 743 315 l 1,54,55
 742 306 742 306 741 297 c 128,-1,56
 740 288 740 288 738 280 c 1,57,-1
 395 280 l 1,58,-1
 395 245 l 1,59,-1
 61 245 l 1,60,61
 55 261 55 261 52 280 c 1,62,-1
 395 280 l 1,63,-1
 395 315 l 1,53,-1
395 385 m 1,64,-1
 743 385 l 1,65,66
 744 376 744 376 744.5 367.5 c 128,-1,67
 745 359 745 359 745 350 c 1,68,-1
 395 350 l 1,69,-1
 395 315 l 1,70,-1
 47 315 l 1,71,72
 46 323 46 323 45.5 332 c 128,-1,73
 45 341 45 341 45 350 c 1,74,-1
 395 350 l 1,75,-1
 395 385 l 1,64,-1
395 455 m 1,76,-1
 729 455 l 1,77,78
 731 447 731 447 733.5 438 c 128,-1,79
 736 429 736 429 738 420 c 1,80,-1
 395 420 l 1,81,-1
 395 385 l 1,82,-1
 47 385 l 1,83,84
 48 394 48 394 49 402.5 c 128,-1,85
 50 411 50 411 52 420 c 1,86,-1
 395 420 l 1,87,-1
 395 455 l 1,76,-1
395 525 m 1,88,-1
 698 525 l 1,89,90
 708 509 708 509 716 490 c 1,91,-1
 395 490 l 1,92,-1
 395 455 l 1,93,-1
 61 455 l 1,94,95
 64 464 64 464 67 473 c 128,-1,96
 70 482 70 482 74 490 c 1,97,-1
 395 490 l 1,98,-1
 395 525 l 1,88,-1
EndSplineSet
Validated: 5
EndChar

StartChar: dagger
Encoding: 8224 8224 59
Width: 790
Flags: W
LayerCount: 2
Fore
SplineSet
395 700 m 1,0,-1
 395 665 l 1,1,-1
 242 665 l 1,2,3
 277 682 277 682 315 691 c 128,-1,4
 353 700 353 700 395 700 c 1,0,-1
115 140 m 1,5,-1
 395 140 l 1,6,-1
 395 175 l 1,7,-1
 698 175 l 1,8,9
 688 158 688 158 675 140 c 1,10,-1
 395 140 l 1,11,-1
 395 105 l 1,12,-1
 645 105 l 1,13,14
 635 95 635 95 625.5 86.5 c 128,-1,15
 616 78 616 78 605 70 c 1,16,-1
 395 70 l 1,17,-1
 395 105 l 1,18,-1
 145 105 l 1,19,20
 130 120 130 120 115 140 c 1,5,-1
395 595 m 1,21,-1
 645 595 l 1,22,23
 660 580 660 580 675 560 c 1,24,-1
 395 560 l 1,25,-1
 395 525 l 1,26,-1
 92 525 l 1,27,28
 102 542 102 542 115 560 c 1,29,-1
 395 560 l 1,30,-1
 395 595 l 1,31,-1
 145 595 l 1,32,33
 154 605 154 605 164 613.5 c 128,-1,34
 174 622 174 622 185 630 c 1,35,-1
 395 630 l 1,36,-1
 395 595 l 1,21,-1
74 210 m 1,37,-1
 395 210 l 1,38,-1
 395 245 l 1,39,-1
 729 245 l 1,40,41
 726 236 726 236 723 227 c 128,-1,42
 720 218 720 218 716 210 c 1,43,-1
 395 210 l 1,44,-1
 395 175 l 1,45,-1
 92 175 l 1,46,47
 82 191 82 191 74 210 c 1,37,-1
395 35 m 1,48,-1
 548 35 l 1,49,50
 513 18 513 18 475 9 c 128,-1,51
 437 0 437 0 395 0 c 1,52,-1
 395 35 l 1,48,-1
395 315 m 1,53,-1
 743 315 l 1,54,55
 742 306 742 306 741 297 c 128,-1,56
 740 288 740 288 738 280 c 1,57,-1
 395 280 l 1,58,-1
 395 245 l 1,59,-1
 61 245 l 1,60,61
 55 261 55 261 52 280 c 1,62,-1
 395 280 l 1,63,-1
 395 315 l 1,53,-1
395 385 m 1,64,-1
 743 385 l 1,65,66
 744 376 744 376 744.5 367.5 c 128,-1,67
 745 359 745 359 745 350 c 1,68,-1
 395 350 l 1,69,-1
 395 315 l 1,70,-1
 47 315 l 1,71,72
 46 323 46 323 45.5 332 c 128,-1,73
 45 341 45 341 45 350 c 1,74,-1
 395 350 l 1,75,-1
 395 385 l 1,64,-1
395 455 m 1,76,-1
 729 455 l 1,77,78
 731 447 731 447 733.5 438 c 128,-1,79
 736 429 736 429 738 420 c 1,80,-1
 395 420 l 1,81,-1
 395 385 l 1,82,-1
 47 385 l 1,83,84
 48 394 48 394 49 402.5 c 128,-1,85
 50 411 50 411 52 420 c 1,86,-1
 395 420 l 1,87,-1
 395 455 l 1,76,-1
395 525 m 1,88,-1
 698 525 l 1,89,90
 708 509 708 509 716 490 c 1,91,-1
 395 490 l 1,92,-1
 395 455 l 1,93,-1
 61 455 l 1,94,95
 64 464 64 464 67 473 c 128,-1,96
 70 482 70 482 74 490 c 1,97,-1
 395 490 l 1,98,-1
 395 525 l 1,88,-1
EndSplineSet
Validated: 5
EndChar

StartChar: daggerdbl
Encoding: 8225 8225 60
Width: 790
Flags: W
LayerCount: 2
Fore
SplineSet
395 700 m 1,0,-1
 395 665 l 1,1,-1
 242 665 l 1,2,3
 277 682 277 682 315 691 c 128,-1,4
 353 700 353 700 395 700 c 1,0,-1
115 140 m 1,5,-1
 395 140 l 1,6,-1
 395 175 l 1,7,-1
 698 175 l 1,8,9
 688 158 688 158 675 140 c 1,10,-1
 395 140 l 1,11,-1
 395 105 l 1,12,-1
 645 105 l 1,13,14
 635 95 635 95 625.5 86.5 c 128,-1,15
 616 78 616 78 605 70 c 1,16,-1
 395 70 l 1,17,-1
 395 105 l 1,18,-1
 145 105 l 1,19,20
 130 120 130 120 115 140 c 1,5,-1
395 595 m 1,21,-1
 645 595 l 1,22,23
 660 580 660 580 675 560 c 1,24,-1
 395 560 l 1,25,-1
 395 525 l 1,26,-1
 92 525 l 1,27,28
 102 542 102 542 115 560 c 1,29,-1
 395 560 l 1,30,-1
 395 595 l 1,31,-1
 145 595 l 1,32,33
 154 605 154 605 164 613.5 c 128,-1,34
 174 622 174 622 185 630 c 1,35,-1
 395 630 l 1,36,-1
 395 595 l 1,21,-1
74 210 m 1,37,-1
 395 210 l 1,38,-1
 395 245 l 1,39,-1
 729 245 l 1,40,41
 726 236 726 236 723 227 c 128,-1,42
 720 218 720 218 716 210 c 1,43,-1
 395 210 l 1,44,-1
 395 175 l 1,45,-1
 92 175 l 1,46,47
 82 191 82 191 74 210 c 1,37,-1
395 35 m 1,48,-1
 548 35 l 1,49,50
 513 18 513 18 475 9 c 128,-1,51
 437 0 437 0 395 0 c 1,52,-1
 395 35 l 1,48,-1
395 315 m 1,53,-1
 743 315 l 1,54,55
 742 306 742 306 741 297 c 128,-1,56
 740 288 740 288 738 280 c 1,57,-1
 395 280 l 1,58,-1
 395 245 l 1,59,-1
 61 245 l 1,60,61
 55 261 55 261 52 280 c 1,62,-1
 395 280 l 1,63,-1
 395 315 l 1,53,-1
395 385 m 1,64,-1
 743 385 l 1,65,66
 744 376 744 376 744.5 367.5 c 128,-1,67
 745 359 745 359 745 350 c 1,68,-1
 395 350 l 1,69,-1
 395 315 l 1,70,-1
 47 315 l 1,71,72
 46 323 46 323 45.5 332 c 128,-1,73
 45 341 45 341 45 350 c 1,74,-1
 395 350 l 1,75,-1
 395 385 l 1,64,-1
395 455 m 1,76,-1
 729 455 l 1,77,78
 731 447 731 447 733.5 438 c 128,-1,79
 736 429 736 429 738 420 c 1,80,-1
 395 420 l 1,81,-1
 395 385 l 1,82,-1
 47 385 l 1,83,84
 48 394 48 394 49 402.5 c 128,-1,85
 50 411 50 411 52 420 c 1,86,-1
 395 420 l 1,87,-1
 395 455 l 1,76,-1
395 525 m 1,88,-1
 698 525 l 1,89,90
 708 509 708 509 716 490 c 1,91,-1
 395 490 l 1,92,-1
 395 455 l 1,93,-1
 61 455 l 1,94,95
 64 464 64 464 67 473 c 128,-1,96
 70 482 70 482 74 490 c 1,97,-1
 395 490 l 1,98,-1
 395 525 l 1,88,-1
EndSplineSet
Validated: 5
EndChar

StartChar: perthousand
Encoding: 8240 8240 61
Width: 790
Flags: W
LayerCount: 2
Fore
SplineSet
395 700 m 1,0,-1
 395 665 l 1,1,-1
 242 665 l 1,2,3
 277 682 277 682 315 691 c 128,-1,4
 353 700 353 700 395 700 c 1,0,-1
115 140 m 1,5,-1
 395 140 l 1,6,-1
 395 175 l 1,7,-1
 698 175 l 1,8,9
 688 158 688 158 675 140 c 1,10,-1
 395 140 l 1,11,-1
 395 105 l 1,12,-1
 645 105 l 1,13,14
 635 95 635 95 625.5 86.5 c 128,-1,15
 616 78 616 78 605 70 c 1,16,-1
 395 70 l 1,17,-1
 395 105 l 1,18,-1
 145 105 l 1,19,20
 130 120 130 120 115 140 c 1,5,-1
395 595 m 1,21,-1
 645 595 l 1,22,23
 660 580 660 580 675 560 c 1,24,-1
 395 560 l 1,25,-1
 395 525 l 1,26,-1
 92 525 l 1,27,28
 102 542 102 542 115 560 c 1,29,-1
 395 560 l 1,30,-1
 395 595 l 1,31,-1
 145 595 l 1,32,33
 154 605 154 605 164 613.5 c 128,-1,34
 174 622 174 622 185 630 c 1,35,-1
 395 630 l 1,36,-1
 395 595 l 1,21,-1
74 210 m 1,37,-1
 395 210 l 1,38,-1
 395 245 l 1,39,-1
 729 245 l 1,40,41
 726 236 726 236 723 227 c 128,-1,42
 720 218 720 218 716 210 c 1,43,-1
 395 210 l 1,44,-1
 395 175 l 1,45,-1
 92 175 l 1,46,47
 82 191 82 191 74 210 c 1,37,-1
395 35 m 1,48,-1
 548 35 l 1,49,50
 513 18 513 18 475 9 c 128,-1,51
 437 0 437 0 395 0 c 1,52,-1
 395 35 l 1,48,-1
395 315 m 1,53,-1
 743 315 l 1,54,55
 742 306 742 306 741 297 c 128,-1,56
 740 288 740 288 738 280 c 1,57,-1
 395 280 l 1,58,-1
 395 245 l 1,59,-1
 61 245 l 1,60,61
 55 261 55 261 52 280 c 1,62,-1
 395 280 l 1,63,-1
 395 315 l 1,53,-1
395 385 m 1,64,-1
 743 385 l 1,65,66
 744 376 744 376 744.5 367.5 c 128,-1,67
 745 359 745 359 745 350 c 1,68,-1
 395 350 l 1,69,-1
 395 315 l 1,70,-1
 47 315 l 1,71,72
 46 323 46 323 45.5 332 c 128,-1,73
 45 341 45 341 45 350 c 1,74,-1
 395 350 l 1,75,-1
 395 385 l 1,64,-1
395 455 m 1,76,-1
 729 455 l 1,77,78
 731 447 731 447 733.5 438 c 128,-1,79
 736 429 736 429 738 420 c 1,80,-1
 395 420 l 1,81,-1
 395 385 l 1,82,-1
 47 385 l 1,83,84
 48 394 48 394 49 402.5 c 128,-1,85
 50 411 50 411 52 420 c 1,86,-1
 395 420 l 1,87,-1
 395 455 l 1,76,-1
395 525 m 1,88,-1
 698 525 l 1,89,90
 708 509 708 509 716 490 c 1,91,-1
 395 490 l 1,92,-1
 395 455 l 1,93,-1
 61 455 l 1,94,95
 64 464 64 464 67 473 c 128,-1,96
 70 482 70 482 74 490 c 1,97,-1
 395 490 l 1,98,-1
 395 525 l 1,88,-1
EndSplineSet
Validated: 5
EndChar

StartChar: guilsinglleft
Encoding: 8249 8249 62
Width: 790
Flags: W
LayerCount: 2
Fore
SplineSet
395 700 m 1,0,-1
 395 665 l 1,1,-1
 242 665 l 1,2,3
 277 682 277 682 315 691 c 128,-1,4
 353 700 353 700 395 700 c 1,0,-1
115 140 m 1,5,-1
 395 140 l 1,6,-1
 395 175 l 1,7,-1
 698 175 l 1,8,9
 688 158 688 158 675 140 c 1,10,-1
 395 140 l 1,11,-1
 395 105 l 1,12,-1
 645 105 l 1,13,14
 635 95 635 95 625.5 86.5 c 128,-1,15
 616 78 616 78 605 70 c 1,16,-1
 395 70 l 1,17,-1
 395 105 l 1,18,-1
 145 105 l 1,19,20
 130 120 130 120 115 140 c 1,5,-1
395 595 m 1,21,-1
 645 595 l 1,22,23
 660 580 660 580 675 560 c 1,24,-1
 395 560 l 1,25,-1
 395 525 l 1,26,-1
 92 525 l 1,27,28
 102 542 102 542 115 560 c 1,29,-1
 395 560 l 1,30,-1
 395 595 l 1,31,-1
 145 595 l 1,32,33
 154 605 154 605 164 613.5 c 128,-1,34
 174 622 174 622 185 630 c 1,35,-1
 395 630 l 1,36,-1
 395 595 l 1,21,-1
74 210 m 1,37,-1
 395 210 l 1,38,-1
 395 245 l 1,39,-1
 729 245 l 1,40,41
 726 236 726 236 723 227 c 128,-1,42
 720 218 720 218 716 210 c 1,43,-1
 395 210 l 1,44,-1
 395 175 l 1,45,-1
 92 175 l 1,46,47
 82 191 82 191 74 210 c 1,37,-1
395 35 m 1,48,-1
 548 35 l 1,49,50
 513 18 513 18 475 9 c 128,-1,51
 437 0 437 0 395 0 c 1,52,-1
 395 35 l 1,48,-1
395 315 m 1,53,-1
 743 315 l 1,54,55
 742 306 742 306 741 297 c 128,-1,56
 740 288 740 288 738 280 c 1,57,-1
 395 280 l 1,58,-1
 395 245 l 1,59,-1
 61 245 l 1,60,61
 55 261 55 261 52 280 c 1,62,-1
 395 280 l 1,63,-1
 395 315 l 1,53,-1
395 385 m 1,64,-1
 743 385 l 1,65,66
 744 376 744 376 744.5 367.5 c 128,-1,67
 745 359 745 359 745 350 c 1,68,-1
 395 350 l 1,69,-1
 395 315 l 1,70,-1
 47 315 l 1,71,72
 46 323 46 323 45.5 332 c 128,-1,73
 45 341 45 341 45 350 c 1,74,-1
 395 350 l 1,75,-1
 395 385 l 1,64,-1
395 455 m 1,76,-1
 729 455 l 1,77,78
 731 447 731 447 733.5 438 c 128,-1,79
 736 429 736 429 738 420 c 1,80,-1
 395 420 l 1,81,-1
 395 385 l 1,82,-1
 47 385 l 1,83,84
 48 394 48 394 49 402.5 c 128,-1,85
 50 411 50 411 52 420 c 1,86,-1
 395 420 l 1,87,-1
 395 455 l 1,76,-1
395 525 m 1,88,-1
 698 525 l 1,89,90
 708 509 708 509 716 490 c 1,91,-1
 395 490 l 1,92,-1
 395 455 l 1,93,-1
 61 455 l 1,94,95
 64 464 64 464 67 473 c 128,-1,96
 70 482 70 482 74 490 c 1,97,-1
 395 490 l 1,98,-1
 395 525 l 1,88,-1
EndSplineSet
Validated: 5
EndChar

StartChar: glyph109
Encoding: 65541 -1 63
Width: 790
Flags: W
LayerCount: 2
Fore
SplineSet
395 700 m 1,0,-1
 395 665 l 1,1,-1
 242 665 l 1,2,3
 277 682 277 682 315 691 c 128,-1,4
 353 700 353 700 395 700 c 1,0,-1
115 140 m 1,5,-1
 395 140 l 1,6,-1
 395 175 l 1,7,-1
 698 175 l 1,8,9
 688 158 688 158 675 140 c 1,10,-1
 395 140 l 1,11,-1
 395 105 l 1,12,-1
 645 105 l 1,13,14
 635 95 635 95 625.5 86.5 c 128,-1,15
 616 78 616 78 605 70 c 1,16,-1
 395 70 l 1,17,-1
 395 105 l 1,18,-1
 145 105 l 1,19,20
 130 120 130 120 115 140 c 1,5,-1
395 595 m 1,21,-1
 645 595 l 1,22,23
 660 580 660 580 675 560 c 1,24,-1
 395 560 l 1,25,-1
 395 525 l 1,26,-1
 92 525 l 1,27,28
 102 542 102 542 115 560 c 1,29,-1
 395 560 l 1,30,-1
 395 595 l 1,31,-1
 145 595 l 1,32,33
 154 605 154 605 164 613.5 c 128,-1,34
 174 622 174 622 185 630 c 1,35,-1
 395 630 l 1,36,-1
 395 595 l 1,21,-1
74 210 m 1,37,-1
 395 210 l 1,38,-1
 395 245 l 1,39,-1
 729 245 l 1,40,41
 726 236 726 236 723 227 c 128,-1,42
 720 218 720 218 716 210 c 1,43,-1
 395 210 l 1,44,-1
 395 175 l 1,45,-1
 92 175 l 1,46,47
 82 191 82 191 74 210 c 1,37,-1
395 35 m 1,48,-1
 548 35 l 1,49,50
 513 18 513 18 475 9 c 128,-1,51
 437 0 437 0 395 0 c 1,52,-1
 395 35 l 1,48,-1
395 315 m 1,53,-1
 743 315 l 1,54,55
 742 306 742 306 741 297 c 128,-1,56
 740 288 740 288 738 280 c 1,57,-1
 395 280 l 1,58,-1
 395 245 l 1,59,-1
 61 245 l 1,60,61
 55 261 55 261 52 280 c 1,62,-1
 395 280 l 1,63,-1
 395 315 l 1,53,-1
395 385 m 1,64,-1
 743 385 l 1,65,66
 744 376 744 376 744.5 367.5 c 128,-1,67
 745 359 745 359 745 350 c 1,68,-1
 395 350 l 1,69,-1
 395 315 l 1,70,-1
 47 315 l 1,71,72
 46 323 46 323 45.5 332 c 128,-1,73
 45 341 45 341 45 350 c 1,74,-1
 395 350 l 1,75,-1
 395 385 l 1,64,-1
395 455 m 1,76,-1
 729 455 l 1,77,78
 731 447 731 447 733.5 438 c 128,-1,79
 736 429 736 429 738 420 c 1,80,-1
 395 420 l 1,81,-1
 395 385 l 1,82,-1
 47 385 l 1,83,84
 48 394 48 394 49 402.5 c 128,-1,85
 50 411 50 411 52 420 c 1,86,-1
 395 420 l 1,87,-1
 395 455 l 1,76,-1
395 525 m 1,88,-1
 698 525 l 1,89,90
 708 509 708 509 716 490 c 1,91,-1
 395 490 l 1,92,-1
 395 455 l 1,93,-1
 61 455 l 1,94,95
 64 464 64 464 67 473 c 128,-1,96
 70 482 70 482 74 490 c 1,97,-1
 395 490 l 1,98,-1
 395 525 l 1,88,-1
EndSplineSet
Validated: 5
EndChar

StartChar: glyph111
Encoding: 65542 -1 64
Width: 790
Flags: W
LayerCount: 2
Fore
SplineSet
395 700 m 1,0,-1
 395 665 l 1,1,-1
 242 665 l 1,2,3
 277 682 277 682 315 691 c 128,-1,4
 353 700 353 700 395 700 c 1,0,-1
115 140 m 1,5,-1
 395 140 l 1,6,-1
 395 175 l 1,7,-1
 698 175 l 1,8,9
 688 158 688 158 675 140 c 1,10,-1
 395 140 l 1,11,-1
 395 105 l 1,12,-1
 645 105 l 1,13,14
 635 95 635 95 625.5 86.5 c 128,-1,15
 616 78 616 78 605 70 c 1,16,-1
 395 70 l 1,17,-1
 395 105 l 1,18,-1
 145 105 l 1,19,20
 130 120 130 120 115 140 c 1,5,-1
395 595 m 1,21,-1
 645 595 l 1,22,23
 660 580 660 580 675 560 c 1,24,-1
 395 560 l 1,25,-1
 395 525 l 1,26,-1
 92 525 l 1,27,28
 102 542 102 542 115 560 c 1,29,-1
 395 560 l 1,30,-1
 395 595 l 1,31,-1
 145 595 l 1,32,33
 154 605 154 605 164 613.5 c 128,-1,34
 174 622 174 622 185 630 c 1,35,-1
 395 630 l 1,36,-1
 395 595 l 1,21,-1
74 210 m 1,37,-1
 395 210 l 1,38,-1
 395 245 l 1,39,-1
 729 245 l 1,40,41
 726 236 726 236 723 227 c 128,-1,42
 720 218 720 218 716 210 c 1,43,-1
 395 210 l 1,44,-1
 395 175 l 1,45,-1
 92 175 l 1,46,47
 82 191 82 191 74 210 c 1,37,-1
395 35 m 1,48,-1
 548 35 l 1,49,50
 513 18 513 18 475 9 c 128,-1,51
 437 0 437 0 395 0 c 1,52,-1
 395 35 l 1,48,-1
395 315 m 1,53,-1
 743 315 l 1,54,55
 742 306 742 306 741 297 c 128,-1,56
 740 288 740 288 738 280 c 1,57,-1
 395 280 l 1,58,-1
 395 245 l 1,59,-1
 61 245 l 1,60,61
 55 261 55 261 52 280 c 1,62,-1
 395 280 l 1,63,-1
 395 315 l 1,53,-1
395 385 m 1,64,-1
 743 385 l 1,65,66
 744 376 744 376 744.5 367.5 c 128,-1,67
 745 359 745 359 745 350 c 1,68,-1
 395 350 l 1,69,-1
 395 315 l 1,70,-1
 47 315 l 1,71,72
 46 323 46 323 45.5 332 c 128,-1,73
 45 341 45 341 45 350 c 1,74,-1
 395 350 l 1,75,-1
 395 385 l 1,64,-1
395 455 m 1,76,-1
 729 455 l 1,77,78
 731 447 731 447 733.5 438 c 128,-1,79
 736 429 736 429 738 420 c 1,80,-1
 395 420 l 1,81,-1
 395 385 l 1,82,-1
 47 385 l 1,83,84
 48 394 48 394 49 402.5 c 128,-1,85
 50 411 50 411 52 420 c 1,86,-1
 395 420 l 1,87,-1
 395 455 l 1,76,-1
395 525 m 1,88,-1
 698 525 l 1,89,90
 708 509 708 509 716 490 c 1,91,-1
 395 490 l 1,92,-1
 395 455 l 1,93,-1
 61 455 l 1,94,95
 64 464 64 464 67 473 c 128,-1,96
 70 482 70 482 74 490 c 1,97,-1
 395 490 l 1,98,-1
 395 525 l 1,88,-1
EndSplineSet
Validated: 5
EndChar

StartChar: glyph112
Encoding: 65543 -1 65
Width: 790
Flags: W
LayerCount: 2
Fore
SplineSet
395 700 m 1,0,-1
 395 665 l 1,1,-1
 242 665 l 1,2,3
 277 682 277 682 315 691 c 128,-1,4
 353 700 353 700 395 700 c 1,0,-1
115 140 m 1,5,-1
 395 140 l 1,6,-1
 395 175 l 1,7,-1
 698 175 l 1,8,9
 688 158 688 158 675 140 c 1,10,-1
 395 140 l 1,11,-1
 395 105 l 1,12,-1
 645 105 l 1,13,14
 635 95 635 95 625.5 86.5 c 128,-1,15
 616 78 616 78 605 70 c 1,16,-1
 395 70 l 1,17,-1
 395 105 l 1,18,-1
 145 105 l 1,19,20
 130 120 130 120 115 140 c 1,5,-1
395 595 m 1,21,-1
 645 595 l 1,22,23
 660 580 660 580 675 560 c 1,24,-1
 395 560 l 1,25,-1
 395 525 l 1,26,-1
 92 525 l 1,27,28
 102 542 102 542 115 560 c 1,29,-1
 395 560 l 1,30,-1
 395 595 l 1,31,-1
 145 595 l 1,32,33
 154 605 154 605 164 613.5 c 128,-1,34
 174 622 174 622 185 630 c 1,35,-1
 395 630 l 1,36,-1
 395 595 l 1,21,-1
74 210 m 1,37,-1
 395 210 l 1,38,-1
 395 245 l 1,39,-1
 729 245 l 1,40,41
 726 236 726 236 723 227 c 128,-1,42
 720 218 720 218 716 210 c 1,43,-1
 395 210 l 1,44,-1
 395 175 l 1,45,-1
 92 175 l 1,46,47
 82 191 82 191 74 210 c 1,37,-1
395 35 m 1,48,-1
 548 35 l 1,49,50
 513 18 513 18 475 9 c 128,-1,51
 437 0 437 0 395 0 c 1,52,-1
 395 35 l 1,48,-1
395 315 m 1,53,-1
 743 315 l 1,54,55
 742 306 742 306 741 297 c 128,-1,56
 740 288 740 288 738 280 c 1,57,-1
 395 280 l 1,58,-1
 395 245 l 1,59,-1
 61 245 l 1,60,61
 55 261 55 261 52 280 c 1,62,-1
 395 280 l 1,63,-1
 395 315 l 1,53,-1
395 385 m 1,64,-1
 743 385 l 1,65,66
 744 376 744 376 744.5 367.5 c 128,-1,67
 745 359 745 359 745 350 c 1,68,-1
 395 350 l 1,69,-1
 395 315 l 1,70,-1
 47 315 l 1,71,72
 46 323 46 323 45.5 332 c 128,-1,73
 45 341 45 341 45 350 c 1,74,-1
 395 350 l 1,75,-1
 395 385 l 1,64,-1
395 455 m 1,76,-1
 729 455 l 1,77,78
 731 447 731 447 733.5 438 c 128,-1,79
 736 429 736 429 738 420 c 1,80,-1
 395 420 l 1,81,-1
 395 385 l 1,82,-1
 47 385 l 1,83,84
 48 394 48 394 49 402.5 c 128,-1,85
 50 411 50 411 52 420 c 1,86,-1
 395 420 l 1,87,-1
 395 455 l 1,76,-1
395 525 m 1,88,-1
 698 525 l 1,89,90
 708 509 708 509 716 490 c 1,91,-1
 395 490 l 1,92,-1
 395 455 l 1,93,-1
 61 455 l 1,94,95
 64 464 64 464 67 473 c 128,-1,96
 70 482 70 482 74 490 c 1,97,-1
 395 490 l 1,98,-1
 395 525 l 1,88,-1
EndSplineSet
Validated: 5
EndChar

StartChar: quoteleft
Encoding: 8216 8216 66
Width: 790
Flags: W
LayerCount: 2
Fore
SplineSet
395 700 m 1,0,-1
 395 665 l 1,1,-1
 242 665 l 1,2,3
 277 682 277 682 315 691 c 128,-1,4
 353 700 353 700 395 700 c 1,0,-1
115 140 m 1,5,-1
 395 140 l 1,6,-1
 395 175 l 1,7,-1
 698 175 l 1,8,9
 688 158 688 158 675 140 c 1,10,-1
 395 140 l 1,11,-1
 395 105 l 1,12,-1
 645 105 l 1,13,14
 635 95 635 95 625.5 86.5 c 128,-1,15
 616 78 616 78 605 70 c 1,16,-1
 395 70 l 1,17,-1
 395 105 l 1,18,-1
 145 105 l 1,19,20
 130 120 130 120 115 140 c 1,5,-1
395 595 m 1,21,-1
 645 595 l 1,22,23
 660 580 660 580 675 560 c 1,24,-1
 395 560 l 1,25,-1
 395 525 l 1,26,-1
 92 525 l 1,27,28
 102 542 102 542 115 560 c 1,29,-1
 395 560 l 1,30,-1
 395 595 l 1,31,-1
 145 595 l 1,32,33
 154 605 154 605 164 613.5 c 128,-1,34
 174 622 174 622 185 630 c 1,35,-1
 395 630 l 1,36,-1
 395 595 l 1,21,-1
74 210 m 1,37,-1
 395 210 l 1,38,-1
 395 245 l 1,39,-1
 729 245 l 1,40,41
 726 236 726 236 723 227 c 128,-1,42
 720 218 720 218 716 210 c 1,43,-1
 395 210 l 1,44,-1
 395 175 l 1,45,-1
 92 175 l 1,46,47
 82 191 82 191 74 210 c 1,37,-1
395 35 m 1,48,-1
 548 35 l 1,49,50
 513 18 513 18 475 9 c 128,-1,51
 437 0 437 0 395 0 c 1,52,-1
 395 35 l 1,48,-1
395 315 m 1,53,-1
 743 315 l 1,54,55
 742 306 742 306 741 297 c 128,-1,56
 740 288 740 288 738 280 c 1,57,-1
 395 280 l 1,58,-1
 395 245 l 1,59,-1
 61 245 l 1,60,61
 55 261 55 261 52 280 c 1,62,-1
 395 280 l 1,63,-1
 395 315 l 1,53,-1
395 385 m 1,64,-1
 743 385 l 1,65,66
 744 376 744 376 744.5 367.5 c 128,-1,67
 745 359 745 359 745 350 c 1,68,-1
 395 350 l 1,69,-1
 395 315 l 1,70,-1
 47 315 l 1,71,72
 46 323 46 323 45.5 332 c 128,-1,73
 45 341 45 341 45 350 c 1,74,-1
 395 350 l 1,75,-1
 395 385 l 1,64,-1
395 455 m 1,76,-1
 729 455 l 1,77,78
 731 447 731 447 733.5 438 c 128,-1,79
 736 429 736 429 738 420 c 1,80,-1
 395 420 l 1,81,-1
 395 385 l 1,82,-1
 47 385 l 1,83,84
 48 394 48 394 49 402.5 c 128,-1,85
 50 411 50 411 52 420 c 1,86,-1
 395 420 l 1,87,-1
 395 455 l 1,76,-1
395 525 m 1,88,-1
 698 525 l 1,89,90
 708 509 708 509 716 490 c 1,91,-1
 395 490 l 1,92,-1
 395 455 l 1,93,-1
 61 455 l 1,94,95
 64 464 64 464 67 473 c 128,-1,96
 70 482 70 482 74 490 c 1,97,-1
 395 490 l 1,98,-1
 395 525 l 1,88,-1
EndSplineSet
Validated: 5
EndChar

StartChar: quoteright
Encoding: 8217 8217 67
Width: 790
Flags: W
LayerCount: 2
Fore
SplineSet
395 700 m 1,0,-1
 395 665 l 1,1,-1
 242 665 l 1,2,3
 277 682 277 682 315 691 c 128,-1,4
 353 700 353 700 395 700 c 1,0,-1
115 140 m 1,5,-1
 395 140 l 1,6,-1
 395 175 l 1,7,-1
 698 175 l 1,8,9
 688 158 688 158 675 140 c 1,10,-1
 395 140 l 1,11,-1
 395 105 l 1,12,-1
 645 105 l 1,13,14
 635 95 635 95 625.5 86.5 c 128,-1,15
 616 78 616 78 605 70 c 1,16,-1
 395 70 l 1,17,-1
 395 105 l 1,18,-1
 145 105 l 1,19,20
 130 120 130 120 115 140 c 1,5,-1
395 595 m 1,21,-1
 645 595 l 1,22,23
 660 580 660 580 675 560 c 1,24,-1
 395 560 l 1,25,-1
 395 525 l 1,26,-1
 92 525 l 1,27,28
 102 542 102 542 115 560 c 1,29,-1
 395 560 l 1,30,-1
 395 595 l 1,31,-1
 145 595 l 1,32,33
 154 605 154 605 164 613.5 c 128,-1,34
 174 622 174 622 185 630 c 1,35,-1
 395 630 l 1,36,-1
 395 595 l 1,21,-1
74 210 m 1,37,-1
 395 210 l 1,38,-1
 395 245 l 1,39,-1
 729 245 l 1,40,41
 726 236 726 236 723 227 c 128,-1,42
 720 218 720 218 716 210 c 1,43,-1
 395 210 l 1,44,-1
 395 175 l 1,45,-1
 92 175 l 1,46,47
 82 191 82 191 74 210 c 1,37,-1
395 35 m 1,48,-1
 548 35 l 1,49,50
 513 18 513 18 475 9 c 128,-1,51
 437 0 437 0 395 0 c 1,52,-1
 395 35 l 1,48,-1
395 315 m 1,53,-1
 743 315 l 1,54,55
 742 306 742 306 741 297 c 128,-1,56
 740 288 740 288 738 280 c 1,57,-1
 395 280 l 1,58,-1
 395 245 l 1,59,-1
 61 245 l 1,60,61
 55 261 55 261 52 280 c 1,62,-1
 395 280 l 1,63,-1
 395 315 l 1,53,-1
395 385 m 1,64,-1
 743 385 l 1,65,66
 744 376 744 376 744.5 367.5 c 128,-1,67
 745 359 745 359 745 350 c 1,68,-1
 395 350 l 1,69,-1
 395 315 l 1,70,-1
 47 315 l 1,71,72
 46 323 46 323 45.5 332 c 128,-1,73
 45 341 45 341 45 350 c 1,74,-1
 395 350 l 1,75,-1
 395 385 l 1,64,-1
395 455 m 1,76,-1
 729 455 l 1,77,78
 731 447 731 447 733.5 438 c 128,-1,79
 736 429 736 429 738 420 c 1,80,-1
 395 420 l 1,81,-1
 395 385 l 1,82,-1
 47 385 l 1,83,84
 48 394 48 394 49 402.5 c 128,-1,85
 50 411 50 411 52 420 c 1,86,-1
 395 420 l 1,87,-1
 395 455 l 1,76,-1
395 525 m 1,88,-1
 698 525 l 1,89,90
 708 509 708 509 716 490 c 1,91,-1
 395 490 l 1,92,-1
 395 455 l 1,93,-1
 61 455 l 1,94,95
 64 464 64 464 67 473 c 128,-1,96
 70 482 70 482 74 490 c 1,97,-1
 395 490 l 1,98,-1
 395 525 l 1,88,-1
EndSplineSet
Validated: 5
EndChar

StartChar: quotedblleft
Encoding: 8220 8220 68
Width: 790
Flags: W
LayerCount: 2
Fore
SplineSet
395 700 m 1,0,-1
 395 665 l 1,1,-1
 242 665 l 1,2,3
 277 682 277 682 315 691 c 128,-1,4
 353 700 353 700 395 700 c 1,0,-1
115 140 m 1,5,-1
 395 140 l 1,6,-1
 395 175 l 1,7,-1
 698 175 l 1,8,9
 688 158 688 158 675 140 c 1,10,-1
 395 140 l 1,11,-1
 395 105 l 1,12,-1
 645 105 l 1,13,14
 635 95 635 95 625.5 86.5 c 128,-1,15
 616 78 616 78 605 70 c 1,16,-1
 395 70 l 1,17,-1
 395 105 l 1,18,-1
 145 105 l 1,19,20
 130 120 130 120 115 140 c 1,5,-1
395 595 m 1,21,-1
 645 595 l 1,22,23
 660 580 660 580 675 560 c 1,24,-1
 395 560 l 1,25,-1
 395 525 l 1,26,-1
 92 525 l 1,27,28
 102 542 102 542 115 560 c 1,29,-1
 395 560 l 1,30,-1
 395 595 l 1,31,-1
 145 595 l 1,32,33
 154 605 154 605 164 613.5 c 128,-1,34
 174 622 174 622 185 630 c 1,35,-1
 395 630 l 1,36,-1
 395 595 l 1,21,-1
74 210 m 1,37,-1
 395 210 l 1,38,-1
 395 245 l 1,39,-1
 729 245 l 1,40,41
 726 236 726 236 723 227 c 128,-1,42
 720 218 720 218 716 210 c 1,43,-1
 395 210 l 1,44,-1
 395 175 l 1,45,-1
 92 175 l 1,46,47
 82 191 82 191 74 210 c 1,37,-1
395 35 m 1,48,-1
 548 35 l 1,49,50
 513 18 513 18 475 9 c 128,-1,51
 437 0 437 0 395 0 c 1,52,-1
 395 35 l 1,48,-1
395 315 m 1,53,-1
 743 315 l 1,54,55
 742 306 742 306 741 297 c 128,-1,56
 740 288 740 288 738 280 c 1,57,-1
 395 280 l 1,58,-1
 395 245 l 1,59,-1
 61 245 l 1,60,61
 55 261 55 261 52 280 c 1,62,-1
 395 280 l 1,63,-1
 395 315 l 1,53,-1
395 385 m 1,64,-1
 743 385 l 1,65,66
 744 376 744 376 744.5 367.5 c 128,-1,67
 745 359 745 359 745 350 c 1,68,-1
 395 350 l 1,69,-1
 395 315 l 1,70,-1
 47 315 l 1,71,72
 46 323 46 323 45.5 332 c 128,-1,73
 45 341 45 341 45 350 c 1,74,-1
 395 350 l 1,75,-1
 395 385 l 1,64,-1
395 455 m 1,76,-1
 729 455 l 1,77,78
 731 447 731 447 733.5 438 c 128,-1,79
 736 429 736 429 738 420 c 1,80,-1
 395 420 l 1,81,-1
 395 385 l 1,82,-1
 47 385 l 1,83,84
 48 394 48 394 49 402.5 c 128,-1,85
 50 411 50 411 52 420 c 1,86,-1
 395 420 l 1,87,-1
 395 455 l 1,76,-1
395 525 m 1,88,-1
 698 525 l 1,89,90
 708 509 708 509 716 490 c 1,91,-1
 395 490 l 1,92,-1
 395 455 l 1,93,-1
 61 455 l 1,94,95
 64 464 64 464 67 473 c 128,-1,96
 70 482 70 482 74 490 c 1,97,-1
 395 490 l 1,98,-1
 395 525 l 1,88,-1
EndSplineSet
Validated: 5
EndChar

StartChar: quotedblright
Encoding: 8221 8221 69
Width: 790
Flags: W
LayerCount: 2
Fore
SplineSet
395 700 m 1,0,-1
 395 665 l 1,1,-1
 242 665 l 1,2,3
 277 682 277 682 315 691 c 128,-1,4
 353 700 353 700 395 700 c 1,0,-1
115 140 m 1,5,-1
 395 140 l 1,6,-1
 395 175 l 1,7,-1
 698 175 l 1,8,9
 688 158 688 158 675 140 c 1,10,-1
 395 140 l 1,11,-1
 395 105 l 1,12,-1
 645 105 l 1,13,14
 635 95 635 95 625.5 86.5 c 128,-1,15
 616 78 616 78 605 70 c 1,16,-1
 395 70 l 1,17,-1
 395 105 l 1,18,-1
 145 105 l 1,19,20
 130 120 130 120 115 140 c 1,5,-1
395 595 m 1,21,-1
 645 595 l 1,22,23
 660 580 660 580 675 560 c 1,24,-1
 395 560 l 1,25,-1
 395 525 l 1,26,-1
 92 525 l 1,27,28
 102 542 102 542 115 560 c 1,29,-1
 395 560 l 1,30,-1
 395 595 l 1,31,-1
 145 595 l 1,32,33
 154 605 154 605 164 613.5 c 128,-1,34
 174 622 174 622 185 630 c 1,35,-1
 395 630 l 1,36,-1
 395 595 l 1,21,-1
74 210 m 1,37,-1
 395 210 l 1,38,-1
 395 245 l 1,39,-1
 729 245 l 1,40,41
 726 236 726 236 723 227 c 128,-1,42
 720 218 720 218 716 210 c 1,43,-1
 395 210 l 1,44,-1
 395 175 l 1,45,-1
 92 175 l 1,46,47
 82 191 82 191 74 210 c 1,37,-1
395 35 m 1,48,-1
 548 35 l 1,49,50
 513 18 513 18 475 9 c 128,-1,51
 437 0 437 0 395 0 c 1,52,-1
 395 35 l 1,48,-1
395 315 m 1,53,-1
 743 315 l 1,54,55
 742 306 742 306 741 297 c 128,-1,56
 740 288 740 288 738 280 c 1,57,-1
 395 280 l 1,58,-1
 395 245 l 1,59,-1
 61 245 l 1,60,61
 55 261 55 261 52 280 c 1,62,-1
 395 280 l 1,63,-1
 395 315 l 1,53,-1
395 385 m 1,64,-1
 743 385 l 1,65,66
 744 376 744 376 744.5 367.5 c 128,-1,67
 745 359 745 359 745 350 c 1,68,-1
 395 350 l 1,69,-1
 395 315 l 1,70,-1
 47 315 l 1,71,72
 46 323 46 323 45.5 332 c 128,-1,73
 45 341 45 341 45 350 c 1,74,-1
 395 350 l 1,75,-1
 395 385 l 1,64,-1
395 455 m 1,76,-1
 729 455 l 1,77,78
 731 447 731 447 733.5 438 c 128,-1,79
 736 429 736 429 738 420 c 1,80,-1
 395 420 l 1,81,-1
 395 385 l 1,82,-1
 47 385 l 1,83,84
 48 394 48 394 49 402.5 c 128,-1,85
 50 411 50 411 52 420 c 1,86,-1
 395 420 l 1,87,-1
 395 455 l 1,76,-1
395 525 m 1,88,-1
 698 525 l 1,89,90
 708 509 708 509 716 490 c 1,91,-1
 395 490 l 1,92,-1
 395 455 l 1,93,-1
 61 455 l 1,94,95
 64 464 64 464 67 473 c 128,-1,96
 70 482 70 482 74 490 c 1,97,-1
 395 490 l 1,98,-1
 395 525 l 1,88,-1
EndSplineSet
Validated: 5
EndChar

StartChar: bullet
Encoding: 8226 8226 70
Width: 790
Flags: W
LayerCount: 2
Fore
SplineSet
395 700 m 1,0,-1
 395 665 l 1,1,-1
 242 665 l 1,2,3
 277 682 277 682 315 691 c 128,-1,4
 353 700 353 700 395 700 c 1,0,-1
115 140 m 1,5,-1
 395 140 l 1,6,-1
 395 175 l 1,7,-1
 698 175 l 1,8,9
 688 158 688 158 675 140 c 1,10,-1
 395 140 l 1,11,-1
 395 105 l 1,12,-1
 645 105 l 1,13,14
 635 95 635 95 625.5 86.5 c 128,-1,15
 616 78 616 78 605 70 c 1,16,-1
 395 70 l 1,17,-1
 395 105 l 1,18,-1
 145 105 l 1,19,20
 130 120 130 120 115 140 c 1,5,-1
395 595 m 1,21,-1
 645 595 l 1,22,23
 660 580 660 580 675 560 c 1,24,-1
 395 560 l 1,25,-1
 395 525 l 1,26,-1
 92 525 l 1,27,28
 102 542 102 542 115 560 c 1,29,-1
 395 560 l 1,30,-1
 395 595 l 1,31,-1
 145 595 l 1,32,33
 154 605 154 605 164 613.5 c 128,-1,34
 174 622 174 622 185 630 c 1,35,-1
 395 630 l 1,36,-1
 395 595 l 1,21,-1
74 210 m 1,37,-1
 395 210 l 1,38,-1
 395 245 l 1,39,-1
 729 245 l 1,40,41
 726 236 726 236 723 227 c 128,-1,42
 720 218 720 218 716 210 c 1,43,-1
 395 210 l 1,44,-1
 395 175 l 1,45,-1
 92 175 l 1,46,47
 82 191 82 191 74 210 c 1,37,-1
395 35 m 1,48,-1
 548 35 l 1,49,50
 513 18 513 18 475 9 c 128,-1,51
 437 0 437 0 395 0 c 1,52,-1
 395 35 l 1,48,-1
395 315 m 1,53,-1
 743 315 l 1,54,55
 742 306 742 306 741 297 c 128,-1,56
 740 288 740 288 738 280 c 1,57,-1
 395 280 l 1,58,-1
 395 245 l 1,59,-1
 61 245 l 1,60,61
 55 261 55 261 52 280 c 1,62,-1
 395 280 l 1,63,-1
 395 315 l 1,53,-1
395 385 m 1,64,-1
 743 385 l 1,65,66
 744 376 744 376 744.5 367.5 c 128,-1,67
 745 359 745 359 745 350 c 1,68,-1
 395 350 l 1,69,-1
 395 315 l 1,70,-1
 47 315 l 1,71,72
 46 323 46 323 45.5 332 c 128,-1,73
 45 341 45 341 45 350 c 1,74,-1
 395 350 l 1,75,-1
 395 385 l 1,64,-1
395 455 m 1,76,-1
 729 455 l 1,77,78
 731 447 731 447 733.5 438 c 128,-1,79
 736 429 736 429 738 420 c 1,80,-1
 395 420 l 1,81,-1
 395 385 l 1,82,-1
 47 385 l 1,83,84
 48 394 48 394 49 402.5 c 128,-1,85
 50 411 50 411 52 420 c 1,86,-1
 395 420 l 1,87,-1
 395 455 l 1,76,-1
395 525 m 1,88,-1
 698 525 l 1,89,90
 708 509 708 509 716 490 c 1,91,-1
 395 490 l 1,92,-1
 395 455 l 1,93,-1
 61 455 l 1,94,95
 64 464 64 464 67 473 c 128,-1,96
 70 482 70 482 74 490 c 1,97,-1
 395 490 l 1,98,-1
 395 525 l 1,88,-1
EndSplineSet
Validated: 5
EndChar

StartChar: endash
Encoding: 8211 8211 71
Width: 790
Flags: W
LayerCount: 2
Fore
SplineSet
395 700 m 1,0,-1
 395 665 l 1,1,-1
 242 665 l 1,2,3
 277 682 277 682 315 691 c 128,-1,4
 353 700 353 700 395 700 c 1,0,-1
115 140 m 1,5,-1
 395 140 l 1,6,-1
 395 175 l 1,7,-1
 698 175 l 1,8,9
 688 158 688 158 675 140 c 1,10,-1
 395 140 l 1,11,-1
 395 105 l 1,12,-1
 645 105 l 1,13,14
 635 95 635 95 625.5 86.5 c 128,-1,15
 616 78 616 78 605 70 c 1,16,-1
 395 70 l 1,17,-1
 395 105 l 1,18,-1
 145 105 l 1,19,20
 130 120 130 120 115 140 c 1,5,-1
395 595 m 1,21,-1
 645 595 l 1,22,23
 660 580 660 580 675 560 c 1,24,-1
 395 560 l 1,25,-1
 395 525 l 1,26,-1
 92 525 l 1,27,28
 102 542 102 542 115 560 c 1,29,-1
 395 560 l 1,30,-1
 395 595 l 1,31,-1
 145 595 l 1,32,33
 154 605 154 605 164 613.5 c 128,-1,34
 174 622 174 622 185 630 c 1,35,-1
 395 630 l 1,36,-1
 395 595 l 1,21,-1
74 210 m 1,37,-1
 395 210 l 1,38,-1
 395 245 l 1,39,-1
 729 245 l 1,40,41
 726 236 726 236 723 227 c 128,-1,42
 720 218 720 218 716 210 c 1,43,-1
 395 210 l 1,44,-1
 395 175 l 1,45,-1
 92 175 l 1,46,47
 82 191 82 191 74 210 c 1,37,-1
395 35 m 1,48,-1
 548 35 l 1,49,50
 513 18 513 18 475 9 c 128,-1,51
 437 0 437 0 395 0 c 1,52,-1
 395 35 l 1,48,-1
395 315 m 1,53,-1
 743 315 l 1,54,55
 742 306 742 306 741 297 c 128,-1,56
 740 288 740 288 738 280 c 1,57,-1
 395 280 l 1,58,-1
 395 245 l 1,59,-1
 61 245 l 1,60,61
 55 261 55 261 52 280 c 1,62,-1
 395 280 l 1,63,-1
 395 315 l 1,53,-1
395 385 m 1,64,-1
 743 385 l 1,65,66
 744 376 744 376 744.5 367.5 c 128,-1,67
 745 359 745 359 745 350 c 1,68,-1
 395 350 l 1,69,-1
 395 315 l 1,70,-1
 47 315 l 1,71,72
 46 323 46 323 45.5 332 c 128,-1,73
 45 341 45 341 45 350 c 1,74,-1
 395 350 l 1,75,-1
 395 385 l 1,64,-1
395 455 m 1,76,-1
 729 455 l 1,77,78
 731 447 731 447 733.5 438 c 128,-1,79
 736 429 736 429 738 420 c 1,80,-1
 395 420 l 1,81,-1
 395 385 l 1,82,-1
 47 385 l 1,83,84
 48 394 48 394 49 402.5 c 128,-1,85
 50 411 50 411 52 420 c 1,86,-1
 395 420 l 1,87,-1
 395 455 l 1,76,-1
395 525 m 1,88,-1
 698 525 l 1,89,90
 708 509 708 509 716 490 c 1,91,-1
 395 490 l 1,92,-1
 395 455 l 1,93,-1
 61 455 l 1,94,95
 64 464 64 464 67 473 c 128,-1,96
 70 482 70 482 74 490 c 1,97,-1
 395 490 l 1,98,-1
 395 525 l 1,88,-1
EndSplineSet
Validated: 5
EndChar

StartChar: emdash
Encoding: 8212 8212 72
Width: 790
Flags: W
LayerCount: 2
Fore
SplineSet
395 700 m 1,0,-1
 395 665 l 1,1,-1
 242 665 l 1,2,3
 277 682 277 682 315 691 c 128,-1,4
 353 700 353 700 395 700 c 1,0,-1
115 140 m 1,5,-1
 395 140 l 1,6,-1
 395 175 l 1,7,-1
 698 175 l 1,8,9
 688 158 688 158 675 140 c 1,10,-1
 395 140 l 1,11,-1
 395 105 l 1,12,-1
 645 105 l 1,13,14
 635 95 635 95 625.5 86.5 c 128,-1,15
 616 78 616 78 605 70 c 1,16,-1
 395 70 l 1,17,-1
 395 105 l 1,18,-1
 145 105 l 1,19,20
 130 120 130 120 115 140 c 1,5,-1
395 595 m 1,21,-1
 645 595 l 1,22,23
 660 580 660 580 675 560 c 1,24,-1
 395 560 l 1,25,-1
 395 525 l 1,26,-1
 92 525 l 1,27,28
 102 542 102 542 115 560 c 1,29,-1
 395 560 l 1,30,-1
 395 595 l 1,31,-1
 145 595 l 1,32,33
 154 605 154 605 164 613.5 c 128,-1,34
 174 622 174 622 185 630 c 1,35,-1
 395 630 l 1,36,-1
 395 595 l 1,21,-1
74 210 m 1,37,-1
 395 210 l 1,38,-1
 395 245 l 1,39,-1
 729 245 l 1,40,41
 726 236 726 236 723 227 c 128,-1,42
 720 218 720 218 716 210 c 1,43,-1
 395 210 l 1,44,-1
 395 175 l 1,45,-1
 92 175 l 1,46,47
 82 191 82 191 74 210 c 1,37,-1
395 35 m 1,48,-1
 548 35 l 1,49,50
 513 18 513 18 475 9 c 128,-1,51
 437 0 437 0 395 0 c 1,52,-1
 395 35 l 1,48,-1
395 315 m 1,53,-1
 743 315 l 1,54,55
 742 306 742 306 741 297 c 128,-1,56
 740 288 740 288 738 280 c 1,57,-1
 395 280 l 1,58,-1
 395 245 l 1,59,-1
 61 245 l 1,60,61
 55 261 55 261 52 280 c 1,62,-1
 395 280 l 1,63,-1
 395 315 l 1,53,-1
395 385 m 1,64,-1
 743 385 l 1,65,66
 744 376 744 376 744.5 367.5 c 128,-1,67
 745 359 745 359 745 350 c 1,68,-1
 395 350 l 1,69,-1
 395 315 l 1,70,-1
 47 315 l 1,71,72
 46 323 46 323 45.5 332 c 128,-1,73
 45 341 45 341 45 350 c 1,74,-1
 395 350 l 1,75,-1
 395 385 l 1,64,-1
395 455 m 1,76,-1
 729 455 l 1,77,78
 731 447 731 447 733.5 438 c 128,-1,79
 736 429 736 429 738 420 c 1,80,-1
 395 420 l 1,81,-1
 395 385 l 1,82,-1
 47 385 l 1,83,84
 48 394 48 394 49 402.5 c 128,-1,85
 50 411 50 411 52 420 c 1,86,-1
 395 420 l 1,87,-1
 395 455 l 1,76,-1
395 525 m 1,88,-1
 698 525 l 1,89,90
 708 509 708 509 716 490 c 1,91,-1
 395 490 l 1,92,-1
 395 455 l 1,93,-1
 61 455 l 1,94,95
 64 464 64 464 67 473 c 128,-1,96
 70 482 70 482 74 490 c 1,97,-1
 395 490 l 1,98,-1
 395 525 l 1,88,-1
EndSplineSet
Validated: 5
EndChar

StartChar: trademark
Encoding: 8482 8482 73
Width: 790
Flags: W
LayerCount: 2
Fore
SplineSet
395 700 m 1,0,-1
 395 665 l 1,1,-1
 242 665 l 1,2,3
 277 682 277 682 315 691 c 128,-1,4
 353 700 353 700 395 700 c 1,0,-1
115 140 m 1,5,-1
 395 140 l 1,6,-1
 395 175 l 1,7,-1
 698 175 l 1,8,9
 688 158 688 158 675 140 c 1,10,-1
 395 140 l 1,11,-1
 395 105 l 1,12,-1
 645 105 l 1,13,14
 635 95 635 95 625.5 86.5 c 128,-1,15
 616 78 616 78 605 70 c 1,16,-1
 395 70 l 1,17,-1
 395 105 l 1,18,-1
 145 105 l 1,19,20
 130 120 130 120 115 140 c 1,5,-1
395 595 m 1,21,-1
 645 595 l 1,22,23
 660 580 660 580 675 560 c 1,24,-1
 395 560 l 1,25,-1
 395 525 l 1,26,-1
 92 525 l 1,27,28
 102 542 102 542 115 560 c 1,29,-1
 395 560 l 1,30,-1
 395 595 l 1,31,-1
 145 595 l 1,32,33
 154 605 154 605 164 613.5 c 128,-1,34
 174 622 174 622 185 630 c 1,35,-1
 395 630 l 1,36,-1
 395 595 l 1,21,-1
74 210 m 1,37,-1
 395 210 l 1,38,-1
 395 245 l 1,39,-1
 729 245 l 1,40,41
 726 236 726 236 723 227 c 128,-1,42
 720 218 720 218 716 210 c 1,43,-1
 395 210 l 1,44,-1
 395 175 l 1,45,-1
 92 175 l 1,46,47
 82 191 82 191 74 210 c 1,37,-1
395 35 m 1,48,-1
 548 35 l 1,49,50
 513 18 513 18 475 9 c 128,-1,51
 437 0 437 0 395 0 c 1,52,-1
 395 35 l 1,48,-1
395 315 m 1,53,-1
 743 315 l 1,54,55
 742 306 742 306 741 297 c 128,-1,56
 740 288 740 288 738 280 c 1,57,-1
 395 280 l 1,58,-1
 395 245 l 1,59,-1
 61 245 l 1,60,61
 55 261 55 261 52 280 c 1,62,-1
 395 280 l 1,63,-1
 395 315 l 1,53,-1
395 385 m 1,64,-1
 743 385 l 1,65,66
 744 376 744 376 744.5 367.5 c 128,-1,67
 745 359 745 359 745 350 c 1,68,-1
 395 350 l 1,69,-1
 395 315 l 1,70,-1
 47 315 l 1,71,72
 46 323 46 323 45.5 332 c 128,-1,73
 45 341 45 341 45 350 c 1,74,-1
 395 350 l 1,75,-1
 395 385 l 1,64,-1
395 455 m 1,76,-1
 729 455 l 1,77,78
 731 447 731 447 733.5 438 c 128,-1,79
 736 429 736 429 738 420 c 1,80,-1
 395 420 l 1,81,-1
 395 385 l 1,82,-1
 47 385 l 1,83,84
 48 394 48 394 49 402.5 c 128,-1,85
 50 411 50 411 52 420 c 1,86,-1
 395 420 l 1,87,-1
 395 455 l 1,76,-1
395 525 m 1,88,-1
 698 525 l 1,89,90
 708 509 708 509 716 490 c 1,91,-1
 395 490 l 1,92,-1
 395 455 l 1,93,-1
 61 455 l 1,94,95
 64 464 64 464 67 473 c 128,-1,96
 70 482 70 482 74 490 c 1,97,-1
 395 490 l 1,98,-1
 395 525 l 1,88,-1
EndSplineSet
Validated: 5
EndChar

StartChar: guilsinglright
Encoding: 8250 8250 74
Width: 790
Flags: W
LayerCount: 2
Fore
SplineSet
395 700 m 1,0,-1
 395 665 l 1,1,-1
 242 665 l 1,2,3
 277 682 277 682 315 691 c 128,-1,4
 353 700 353 700 395 700 c 1,0,-1
115 140 m 1,5,-1
 395 140 l 1,6,-1
 395 175 l 1,7,-1
 698 175 l 1,8,9
 688 158 688 158 675 140 c 1,10,-1
 395 140 l 1,11,-1
 395 105 l 1,12,-1
 645 105 l 1,13,14
 635 95 635 95 625.5 86.5 c 128,-1,15
 616 78 616 78 605 70 c 1,16,-1
 395 70 l 1,17,-1
 395 105 l 1,18,-1
 145 105 l 1,19,20
 130 120 130 120 115 140 c 1,5,-1
395 595 m 1,21,-1
 645 595 l 1,22,23
 660 580 660 580 675 560 c 1,24,-1
 395 560 l 1,25,-1
 395 525 l 1,26,-1
 92 525 l 1,27,28
 102 542 102 542 115 560 c 1,29,-1
 395 560 l 1,30,-1
 395 595 l 1,31,-1
 145 595 l 1,32,33
 154 605 154 605 164 613.5 c 128,-1,34
 174 622 174 622 185 630 c 1,35,-1
 395 630 l 1,36,-1
 395 595 l 1,21,-1
74 210 m 1,37,-1
 395 210 l 1,38,-1
 395 245 l 1,39,-1
 729 245 l 1,40,41
 726 236 726 236 723 227 c 128,-1,42
 720 218 720 218 716 210 c 1,43,-1
 395 210 l 1,44,-1
 395 175 l 1,45,-1
 92 175 l 1,46,47
 82 191 82 191 74 210 c 1,37,-1
395 35 m 1,48,-1
 548 35 l 1,49,50
 513 18 513 18 475 9 c 128,-1,51
 437 0 437 0 395 0 c 1,52,-1
 395 35 l 1,48,-1
395 315 m 1,53,-1
 743 315 l 1,54,55
 742 306 742 306 741 297 c 128,-1,56
 740 288 740 288 738 280 c 1,57,-1
 395 280 l 1,58,-1
 395 245 l 1,59,-1
 61 245 l 1,60,61
 55 261 55 261 52 280 c 1,62,-1
 395 280 l 1,63,-1
 395 315 l 1,53,-1
395 385 m 1,64,-1
 743 385 l 1,65,66
 744 376 744 376 744.5 367.5 c 128,-1,67
 745 359 745 359 745 350 c 1,68,-1
 395 350 l 1,69,-1
 395 315 l 1,70,-1
 47 315 l 1,71,72
 46 323 46 323 45.5 332 c 128,-1,73
 45 341 45 341 45 350 c 1,74,-1
 395 350 l 1,75,-1
 395 385 l 1,64,-1
395 455 m 1,76,-1
 729 455 l 1,77,78
 731 447 731 447 733.5 438 c 128,-1,79
 736 429 736 429 738 420 c 1,80,-1
 395 420 l 1,81,-1
 395 385 l 1,82,-1
 47 385 l 1,83,84
 48 394 48 394 49 402.5 c 128,-1,85
 50 411 50 411 52 420 c 1,86,-1
 395 420 l 1,87,-1
 395 455 l 1,76,-1
395 525 m 1,88,-1
 698 525 l 1,89,90
 708 509 708 509 716 490 c 1,91,-1
 395 490 l 1,92,-1
 395 455 l 1,93,-1
 61 455 l 1,94,95
 64 464 64 464 67 473 c 128,-1,96
 70 482 70 482 74 490 c 1,97,-1
 395 490 l 1,98,-1
 395 525 l 1,88,-1
EndSplineSet
Validated: 5
EndChar

StartChar: glyph125
Encoding: 65544 -1 75
Width: 790
Flags: W
LayerCount: 2
Fore
SplineSet
395 700 m 1,0,-1
 395 665 l 1,1,-1
 242 665 l 1,2,3
 277 682 277 682 315 691 c 128,-1,4
 353 700 353 700 395 700 c 1,0,-1
115 140 m 1,5,-1
 395 140 l 1,6,-1
 395 175 l 1,7,-1
 698 175 l 1,8,9
 688 158 688 158 675 140 c 1,10,-1
 395 140 l 1,11,-1
 395 105 l 1,12,-1
 645 105 l 1,13,14
 635 95 635 95 625.5 86.5 c 128,-1,15
 616 78 616 78 605 70 c 1,16,-1
 395 70 l 1,17,-1
 395 105 l 1,18,-1
 145 105 l 1,19,20
 130 120 130 120 115 140 c 1,5,-1
395 595 m 1,21,-1
 645 595 l 1,22,23
 660 580 660 580 675 560 c 1,24,-1
 395 560 l 1,25,-1
 395 525 l 1,26,-1
 92 525 l 1,27,28
 102 542 102 542 115 560 c 1,29,-1
 395 560 l 1,30,-1
 395 595 l 1,31,-1
 145 595 l 1,32,33
 154 605 154 605 164 613.5 c 128,-1,34
 174 622 174 622 185 630 c 1,35,-1
 395 630 l 1,36,-1
 395 595 l 1,21,-1
74 210 m 1,37,-1
 395 210 l 1,38,-1
 395 245 l 1,39,-1
 729 245 l 1,40,41
 726 236 726 236 723 227 c 128,-1,42
 720 218 720 218 716 210 c 1,43,-1
 395 210 l 1,44,-1
 395 175 l 1,45,-1
 92 175 l 1,46,47
 82 191 82 191 74 210 c 1,37,-1
395 35 m 1,48,-1
 548 35 l 1,49,50
 513 18 513 18 475 9 c 128,-1,51
 437 0 437 0 395 0 c 1,52,-1
 395 35 l 1,48,-1
395 315 m 1,53,-1
 743 315 l 1,54,55
 742 306 742 306 741 297 c 128,-1,56
 740 288 740 288 738 280 c 1,57,-1
 395 280 l 1,58,-1
 395 245 l 1,59,-1
 61 245 l 1,60,61
 55 261 55 261 52 280 c 1,62,-1
 395 280 l 1,63,-1
 395 315 l 1,53,-1
395 385 m 1,64,-1
 743 385 l 1,65,66
 744 376 744 376 744.5 367.5 c 128,-1,67
 745 359 745 359 745 350 c 1,68,-1
 395 350 l 1,69,-1
 395 315 l 1,70,-1
 47 315 l 1,71,72
 46 323 46 323 45.5 332 c 128,-1,73
 45 341 45 341 45 350 c 1,74,-1
 395 350 l 1,75,-1
 395 385 l 1,64,-1
395 455 m 1,76,-1
 729 455 l 1,77,78
 731 447 731 447 733.5 438 c 128,-1,79
 736 429 736 429 738 420 c 1,80,-1
 395 420 l 1,81,-1
 395 385 l 1,82,-1
 47 385 l 1,83,84
 48 394 48 394 49 402.5 c 128,-1,85
 50 411 50 411 52 420 c 1,86,-1
 395 420 l 1,87,-1
 395 455 l 1,76,-1
395 525 m 1,88,-1
 698 525 l 1,89,90
 708 509 708 509 716 490 c 1,91,-1
 395 490 l 1,92,-1
 395 455 l 1,93,-1
 61 455 l 1,94,95
 64 464 64 464 67 473 c 128,-1,96
 70 482 70 482 74 490 c 1,97,-1
 395 490 l 1,98,-1
 395 525 l 1,88,-1
EndSplineSet
Validated: 5
EndChar

StartChar: g
Encoding: 103 103 76
Width: 519
Flags: W
LayerCount: 2
Fore
SplineSet
358 300 m 1,0,-1
 281 300 l 1,1,-1
 273 308 l 1,2,-1
 273 408 l 1,3,-1
 281 416 l 1,4,-1
 466 416 l 1,5,-1
 474 408 l 1,6,-1
 474 201 l 2,7,8
 474 157 474 157 457 117.5 c 128,-1,9
 440 78 440 78 411 49 c 128,-1,10
 382 20 382 20 343 3 c 128,-1,11
 304 -14 304 -14 259 -14 c 0,12,13
 215 -14 215 -14 176 3 c 128,-1,14
 137 20 137 20 108 49 c 128,-1,15
 79 78 79 78 62 117.5 c 128,-1,16
 45 157 45 157 45 201 c 2,17,-1
 45 500 l 2,18,19
 45 544 45 544 62 583 c 128,-1,20
 79 622 79 622 108 651 c 128,-1,21
 137 680 137 680 176 697 c 128,-1,22
 215 714 215 714 259 714 c 0,23,24
 325 714 325 714 379 677.5 c 128,-1,25
 433 641 433 641 458 581 c 1,26,-1
 455 571 l 1,27,-1
 367 520 l 1,28,-1
 355 525 l 1,29,30
 346 557 346 557 319.5 578 c 128,-1,31
 293 599 293 599 259 599 c 0,32,33
 239 599 239 599 221 591 c 128,-1,34
 203 583 203 583 189.5 569.5 c 128,-1,35
 176 556 176 556 168.5 538 c 128,-1,36
 161 520 161 520 161 500 c 2,37,-1
 161 201 l 2,38,39
 161 181 161 181 168.5 163 c 128,-1,40
 176 145 176 145 189.5 131.5 c 128,-1,41
 203 118 203 118 221 110 c 128,-1,42
 239 102 239 102 259 102 c 0,43,44
 280 102 280 102 298 110 c 128,-1,45
 316 118 316 118 329.5 131.5 c 128,-1,46
 343 145 343 145 350.5 163 c 128,-1,47
 358 181 358 181 358 201 c 2,48,-1
 358 300 l 1,0,-1
EndSplineSet
Validated: 1
EndChar

StartChar: e
Encoding: 101 101 77
Width: 477
Flags: W
LayerCount: 2
Fore
SplineSet
176 585 m 1,0,-1
 176 415 l 1,1,-1
 381 415 l 1,2,-1
 389 407 l 1,3,-1
 389 308 l 1,4,-1
 381 300 l 1,5,-1
 176 300 l 1,6,-1
 176 116 l 1,7,-1
 424 116 l 1,8,-1
 432 108 l 1,9,-1
 432 8 l 1,10,-1
 424 0 l 1,11,-1
 68 0 l 1,12,-1
 60 8 l 1,13,-1
 60 692 l 1,14,-1
 68 700 l 1,15,-1
 424 700 l 1,16,-1
 432 692 l 1,17,-1
 432 593 l 1,18,-1
 424 585 l 1,19,-1
 176 585 l 1,0,-1
EndSplineSet
Validated: 1
EndChar

StartChar: f
Encoding: 102 102 78
Width: 473
Flags: W
LayerCount: 2
Fore
SplineSet
176 585 m 1,0,-1
 176 415 l 1,1,-1
 382 415 l 1,2,-1
 390 407 l 1,3,-1
 390 308 l 1,4,-1
 382 300 l 1,5,-1
 176 300 l 1,6,-1
 176 8 l 1,7,-1
 168 0 l 1,8,-1
 68 0 l 1,9,-1
 60 8 l 1,10,-1
 60 692 l 1,11,-1
 68 700 l 1,12,-1
 425 700 l 1,13,-1
 433 692 l 1,14,-1
 433 593 l 1,15,-1
 425 585 l 1,16,-1
 176 585 l 1,0,-1
EndSplineSet
Validated: 1
EndChar
